<?xml version="1.0" standalone="no"?>
<!DOCTYPE svg PUBLIC "-//W3C//DTD SVG 1.1//EN" "http://www.w3.org/Graphics/SVG/1.1/DTD/svg11.dtd" >
<svg xmlns="http://www.w3.org/2000/svg">
<metadata>Generated by IcoMoon</metadata>
<defs>
<font id="3ruler" horiz-adv-x="1024">
<font-face units-per-em="1024" ascent="960" descent="-64" />
<missing-glyph horiz-adv-x="1024" />
<glyph unicode="&#x20;" horiz-adv-x="512" d="" />
<glyph unicode="&#xe900;" glyph-name="password" d="M479.452 341.331c0.36-1.989 0.548-4.056 0.548-6.186v-63.4c0-17.839-14.844-32.3-32-32.3-17.673 0-32 13.698-32 32.3v63.4c0 2.105 0.207 4.164 0.6 6.157-19.46 10.978-32.6 31.845-32.6 55.781 0 35.346 28.654 64 64 64s64-28.654 64-64c0-23.914-13.116-44.765-32.548-55.751zM128 510.076v-319.625c0-36.163 28.522-64.187 63.705-64.187h512.589c34.543 0 63.705 28.738 63.705 64.187v319.625c0 36.163-28.522 64.187-63.705 64.187h-512.589c-34.543 0-63.705-28.738-63.705-64.187zM160 478.853c0 35.020 28.564 63.41 63.843 63.41h448.314c35.259 0 63.843-28.862 63.843-63.41v-257.18c0-35.020-28.564-63.41-63.843-63.41h-448.314c-35.259 0-63.843 28.862-63.843 63.41v257.18zM639.662 705.208h1.383v-128h-32v125.055h-1.389c0.006 0.578 0.009 1.157 0.009 1.737 0 88.366-71.634 160-160 160s-160-71.634-160-160c0-0.588 0.003-1.175 0.009-1.761-0.24-0.006-0.48-0.014-0.72-0.023v-126.606h-32v128h0.711c0 0.13 0 0.259 0 0.389 0 106.039 85.961 192 192 192 105.636 0 191.346-85.309 191.996-190.792z" />
<glyph unicode="&#xe901;" glyph-name="phone" d="M256 831.562v-767.124c0-35.641 28.569-64.438 63.81-64.438h384.38c34.816 0 63.81 28.85 63.81 64.438v767.124c0 35.641-28.569 64.438-63.81 64.438h-384.38c-34.816 0-63.81-28.85-63.81-64.438zM288 864h448v-832h-448v832zM512 84.746c-53.019 0-96 42.981-96 96s42.981 96 96 96c53.019 0 96-42.981 96-96s-42.981-96-96-96zM512 116.746c35.346 0 64 28.654 64 64s-28.654 64-64 64c-35.346 0-64-28.654-64-64s28.654-64 64-64zM416 809.642h192v-43.52h-192v43.52z" />
<glyph unicode="&#xe902;" glyph-name="email" d="M128 640.19v-384.38c0-34.816 28.725-63.81 64.158-63.81h639.683c34.99 0 64.158 28.569 64.158 63.81v384.38c0 34.816-28.725 63.81-64.158 63.81h-639.683c-34.99 0-64.158-28.569-64.158-63.81zM160 672h704v-448h-704v448zM653.289 615.58l-134.327-141.899 22.266-23.521 156.593 165.421h-44.532zM364.291 637.472l177.3-187.296-22.266-23.521-199.566 210.817h44.532zM612.137 525.128l22.266 23.521 133.597-141.128-22.266-23.521-133.597 141.128zM411.863 539.759l-22.266 23.521-133.597-141.128 22.266-23.521 133.597 141.128z" />
<glyph unicode="&#xe903;" glyph-name="angle_up" d="M522.375 690.378l405.675-405.675c12.738-12.738 12.568-33.56 0.437-45.692-12.497-12.497-32.93-12.325-45.692 0.437l-386.771 386.771-376.697-390.082c-12.514-12.958-33.336-13.152-45.677-1.234-12.713 12.277-12.898 32.71-0.361 45.692l399.265 413.451c12.514 12.958 33.336 13.152 45.677 1.234 1.573-1.519 2.955-3.163 4.144-4.903z" />
<glyph unicode="&#xe904;" glyph-name="sign11" d="M402.413 291.319l277.899 51.703 142.798 245.847-136.672 148.056-235.765-141.917-65.278-266.74 128.605 124.192c-0.203 1.531-0.308 3.095-0.308 4.684 0 18.596 14.346 33.671 32.043 33.671s32.043-15.075 32.043-33.671c0-18.596-14.346-33.671-32.043-33.671-2.011 0-3.979 0.195-5.887 0.567l-137.436-132.72zM774.478 822.561c12.953 12.508 33.045 12.716 45.477-0.158l89.326-92.5c12.164-12.596 11.656-32.819-1.429-45.455l-49.979-48.264c-12.953-12.508-33.045-12.716-45.477 0.158l-89.326 92.5c-12.164 12.596-11.656 32.819 1.429 45.455l49.979 48.264zM64 133.335c33.193 8.5 62.169 30.157 79.498 60.505 2.832 7.936 6.246 15.53 10.181 22.747 0.276 0.825 0.545 1.654 0.805 2.487l0.552-0.048c34.579 60.851 106.572 93.863 177.808 76.102 1.27-0.317 2.532-0.648 3.787-0.993 2.196 2.316 4.778 4.34 7.718 5.969 15.457 8.568 34.934 2.983 43.502-12.474s2.983-34.934-12.474-43.502c-15.457-8.568-34.934-2.983-43.502 12.474-1.147 2.069-2.040 4.21-2.69 6.388-1.35 0.383-2.711 0.746-4.083 1.088-56.9 14.187-114.402-12.118-142.116-60.652-2.832-7.936-6.246-15.53-10.181-22.747-0.416-1.241-0.814-2.491-1.194-3.752l-1.262-0.588c-23.053-39.291-61.838-66.647-105.78-75.712l-0.571 32.709z" />
<glyph unicode="&#xe905;" glyph-name="account2" d="M699.306 514.776l2.77 44.899c6.512 105.555-74.167 191.212-180.208 191.212h-51.857c-7.256 0-14.55-0.773-21.803-2.261l-84.276 19.374 12.243-59.604c-35.856-35.055-60.335-88.653-56.629-148.721l2.905-47.089c-12.718-5.239-21.492-18.671-19.95-33.338l4.711-44.818c1.88-17.883 17.627-30.65 35.204-28.803 4.040 0.425 7.865 1.642 11.327 3.49 18.809-29.752 45.109-54.543 75.972-71.626v-22.189c-29.79-11.519-187.798-72.52-223.457-84.329-1.762-0.583-3.458-1.162-5.090-1.734-40.957-4.518-73.167-39.413-73.167-81.791v-18.187c0-35.433 28.725-64.099 64.158-64.099h639.683c34.99 0 64.158 28.698 64.158 64.099v18.187c0 43.47-33.204 78.605-75.439 82.014-1.435 0.499-2.918 1.003-4.45 1.51-35.052 11.607-188.323 70.747-221.826 83.698v24.128c30.584 17.443 56.536 42.502 74.949 72.449 3.895-2.397 8.319-3.974 13.035-4.469 17.576-1.847 33.324 10.92 35.204 28.803l4.711 44.818c1.657 15.768-8.608 30.108-22.878 34.376z" />
<glyph unicode="&#xe906;" glyph-name="activity" d="M714.418 505.834c15.267 0 52.892-63.308 78.015-122.659s39.669-135.848 39.669-135.848c0 0-50.433-83.905-129.271-128.74s-147.088-50.631-147.088-50.631c0 0 57.253 54.819 80.641 219.169 21.176 148.807 62.767 218.709 78.034 218.709zM748.121 545.089c0 5.367 38.071 15.896 69.945 15.896s60.137-11.734 65.518-26.493c5.381-14.759 16.822-56.519 10.624-118.833s-35.661-128.763-35.661-128.763c0 0-17.462 74.893-40.481 128.763s-69.945 124.063-69.945 129.43zM728.666 673.697c-29.931-22.139-54.404-41.932-54.404-41.932l47.812-57.003c0 0 44.663 22.139 84.074 22.139s65.242-12.076 65.242-12.076c0 0-21.093 46.467-40.043 75.068s-45.804 54.503-45.804 54.503c0 0-26.947-18.56-56.877-40.699zM594.952 700.516l50.168-45.922 115.329 87.324c0 0-24.584 17.069-67.221 44.259-24.219 15.445-67.288 30.909-67.288 30.909s11.894-26.65 8.854-54.753c-3.040-28.102-39.842-61.818-39.842-61.818zM478.63 831.216c51.899 3.532 101.707-5.9 110.124-7.948 7.517-1.829 18.031-29.023 13.281-50.337-4.925-22.096-23.905-45.922-34.53-45.922-5.566 0-44.412 28.766-88.875 49.454-47.49 22.096-100.595 36.207-100.595 36.207s48.696 15.013 100.595 18.545zM204.504 680.632c39.62 50.438 94.285 101.13 136.345 101.13 66.988 0 178.189-59.188 180.431-82.676 2.128-22.287-130.075-50.331-232.116-71.022s-141.849-53.686-141.849-53.686c0 0 16.464 54.411 57.188 106.254zM559.537 679.321l54.893-52.103c0 0-124.823-95.992-238.053-212.191s-173.525-194.494-173.525-194.494c0 0-37.038 54.721-61.211 129.389s-8.854 166.908-8.854 166.908c0 0 31.004 64.412 200.094 88.311s226.656 74.181 226.656 74.181zM642.113 605.866c0 0-116.193-90.674-213.908-189.929s-199.071-220.761-199.071-220.761c0 0 41.377-54.348 115.895-92.762s157.822-38.414 157.822-38.414c0 0 70.148 50.712 92.56 218.939s93.883 271.695 93.883 271.695l-47.181 51.232z" />
<glyph unicode="&#xe907;" glyph-name="add_border" d="M448 512h-320v-128h320v-320h128v320h320v128h-320v320h-128v-320z" />
<glyph unicode="&#xe908;" glyph-name="add" d="M576 498.65h192.295c35.184 0 63.705-28.407 63.705-64 0-35.346-29.163-64-63.705-64h-192.295v-178.944c0-35.184-28.407-63.705-64-63.705-35.346 0-64 29.163-64 63.705v178.944h-192.295c-35.184 0-63.705 28.407-63.705 64 0 35.346 29.163 64 63.705 64h192.295v205.645c0 35.184 28.407 63.705 64 63.705 35.346 0 64-29.163 64-63.705v-205.645zM512 0c247.424 0 448 200.576 448 448s-200.576 448-448 448c-247.424 0-448-200.576-448-448s200.576-448 448-448z" />
<glyph unicode="&#xe909;" glyph-name="admin" d="M607.142 206.229l-0.103-0.211h-519.144c-8.187 0-16.176-0.798-23.896-2.319l4.82 107.101c2.614 58.093 52.677 105.187 112.56 105.187h376.219l2.845-2.304c-4.137-12.651-7.092-25.837-8.735-39.427l-53.212-12.285c-16.85-3.89-28.052-21.23-24.062-38.508l16.696-72.318c3.89-16.85 21.23-28.052 38.508-24.062l52.046 12.016c7.385-11.804 15.924-22.813 25.458-32.868zM339.914 496.301c75.028 0 135.85 60.822 135.85 135.85s-60.822 135.85-135.85 135.85c-75.028 0-135.85-60.822-135.85-135.85s60.822-135.85 135.85-135.85zM804.591 498.57v25.464c0 18.677-15.221 33.997-33.997 33.997h-35.834c-18.677 0-33.997-15.221-33.997-33.997v-28.21c-10.186-3.91-19.857-8.859-28.884-14.718l-22.22 17.993c-14.515 11.754-36 9.566-47.816-5.026l-22.551-27.848c-11.754-14.515-9.566-36 5.026-47.816l24.184-19.583c-3.103-9.488-5.319-19.378-6.551-29.57l-30.247-6.983c-18.198-4.201-29.702-22.479-25.478-40.773l8.061-34.915c4.201-18.198 22.479-29.702 40.773-25.478l29.372 6.781c5.539-8.853 11.943-17.11 19.093-24.651l-12.937-26.525c-8.187-16.787-1.223-37.229 15.653-45.46l32.207-15.708c16.787-8.187 37.229-1.223 45.46 15.653l12.088 24.783c6.729-0.888 13.593-1.346 20.564-1.346 4.441 0 8.838 0.186 13.185 0.55l11.7-23.988c8.187-16.787 28.584-23.884 45.46-15.653l32.207 15.708c16.787 8.187 23.884 28.584 15.653 45.46l-10.381 21.283c8.832 8.476 16.667 17.984 23.312 28.329l22.597-5.217c18.198-4.201 36.55 7.183 40.773 25.478l8.061 34.915c4.201 18.198-7.183 36.55-25.478 40.773l-22.269 5.141c-1.373 12.623-4.255 24.793-8.461 36.326l18.116 14.67c14.515 11.754 16.842 33.224 5.026 47.816l-22.551 27.848c-11.754 14.515-33.224 16.842-47.816 5.026l-18.834-15.252c-10.070 6.071-20.882 11.035-32.269 14.723v0z" />
<glyph unicode="&#xe90a;" glyph-name="angle_down" d="M495.274 182.288c10.497-1.88 21.94 1.372 29.849 9.853l391.989 420.356c12.309 13.199 11.767 33.626-1.158 45.679-12.547 11.701-33.363 11.144-45.648-2.031l-372.243-399.182-372.852 399.835c-12.309 13.199-32.723 14.084-45.648 2.031-12.547-11.701-13.444-32.504-1.158-45.679l391.989-420.356c6.723-7.209 15.864-10.745 24.882-10.505z" />
<glyph unicode="&#xe90b;" glyph-name="angle_left" d="M265.825 433.525c-0.233 0.22-0.464 0.444-0.692 0.672-12.131 12.131-12.301 32.954 0.437 45.692l406.42 406.42c12.762 12.762 33.195 12.933 45.692 0.437 12.131-12.131 12.301-32.954-0.437-45.692l-385.783-385.783 392.927-392.927c12.762-12.762 12.933-33.195 0.437-45.692-12.131-12.131-32.954-12.301-45.692 0.437l-406.42 406.42c-2.985 2.985-5.282 6.39-6.888 10.015z" />
<glyph unicode="&#xe90c;" glyph-name="angle_right" d="M724.255 433.525c0.233 0.22 0.464 0.444 0.692 0.672 12.131 12.131 12.301 32.954-0.437 45.692l-406.42 406.42c-12.762 12.762-33.195 12.933-45.692 0.437-12.131-12.131-12.301-32.954 0.437-45.692l385.783-385.783-392.927-392.927c-12.762-12.762-12.933-33.195-0.437-45.692 12.131-12.131 32.954-12.301 45.692 0.437l406.42 406.42c2.985 2.985 5.282 6.39 6.888 10.015z" />
<glyph unicode="&#xe90d;" glyph-name="application_border" d="M64 778.842v-254.903c0-35.334 28.714-64.134 64.134-64.134h254.903c35.334 0 64.134 28.714 64.134 64.134v254.903c0 35.334-28.714 64.134-64.134 64.134h-254.903c-35.334 0-64.134-28.714-64.134-64.134zM95.9 751.26c0 29.491 24.005 53.399 54.177 53.399h211.017c29.921 0 54.177-24.055 54.177-53.399v-199.763c0-29.491-24.005-53.399-54.177-53.399h-211.017c-29.921 0-54.177 24.055-54.177 53.399v199.763zM64 319.037v-254.903c0-35.334 28.714-64.134 64.134-64.134h254.903c35.334 0 64.134 28.714 64.134 64.134v254.903c0 35.334-28.714 64.134-64.134 64.134h-254.903c-35.334 0-64.134-28.714-64.134-64.134zM95.9 291.459c0 29.489 24.005 53.395 54.177 53.395h211.017c29.921 0 54.177-24.053 54.177-53.395v-199.748c0-29.489-24.005-53.395-54.177-53.395h-211.017c-29.921 0-54.177 24.053-54.177 53.395v199.748zM523.805 319.037v-254.903c0-35.334 28.714-64.134 64.134-64.134h254.903c35.334 0 64.134 28.714 64.134 64.134v254.903c0 35.334-28.714 64.134-64.134 64.134h-254.903c-35.334 0-64.134-28.714-64.134-64.134zM555.705 291.459c0 29.489 24.005 53.395 54.177 53.395h211.017c29.921 0 54.177-24.053 54.177-53.395v-199.748c0-29.489-24.005-53.395-54.177-53.395h-211.017c-29.921 0-54.177 24.053-54.177 53.395v199.748zM760.74 425.798l180.243 180.243c24.985 24.985 25.046 65.653 0 90.699l-180.243 180.243c-24.985 24.985-65.653 25.046-90.699 0l-180.243-180.243c-24.985-24.985-25.046-65.653 0-90.699l180.243-180.243c24.985-24.985 65.653-25.046 90.699 0zM757.679 467.838c-20.853-20.853-54.732-20.785-76.067 0.55l-149.212 149.212c-21.157 21.157-21.299 55.319-0.55 76.067l141.254 141.254c20.853 20.853 54.732 20.785 76.067-0.55l149.212-149.212c21.157-21.157 21.299-55.319 0.55-76.067l-141.254-141.254z" />
<glyph unicode="&#xe90e;" glyph-name="application" d="M64 784.364c0 35.154 28.972 63.651 63.651 63.651h258.159c35.154 0 63.651-28.972 63.651-63.651v-258.159c0-35.154-28.972-63.651-63.651-63.651h-258.159c-35.154 0-63.651 28.972-63.651 63.651v258.159zM64 321.81c0 35.154 28.972 63.651 63.651 63.651h258.159c35.154 0 63.651-28.972 63.651-63.651v-258.159c0-35.154-28.972-63.651-63.651-63.651h-258.159c-35.154 0-63.651 28.972-63.651 63.651v258.159zM526.554 321.81c0 35.154 28.972 63.651 63.651 63.651h258.159c35.154 0 63.651-28.972 63.651-63.651v-258.159c0-35.154-28.972-63.651-63.651-63.651h-258.159c-35.154 0-63.651 28.972-63.651 63.651v258.159zM674.276 882.838c24.857 24.857 65.495 24.522 90.016 0l182.546-182.546c24.857-24.857 24.522-65.495 0-90.016l-182.546-182.546c-24.857-24.857-65.495-24.522-90.016 0l-182.546 182.546c-24.857 24.857-24.522 65.495 0 90.016l182.546 182.546z" />
<glyph unicode="&#xe90f;" glyph-name="ashbin" d="M640 768c0 35.593-28.922 64-64.6 64h-126.801c-36.225 0-64.6-28.654-64.6-64h-223.978c-17.366 0-32.022-14.327-32.022-32 0-17.156 14.337-32 32.022-32h703.956c17.366 0 32.022 14.327 32.022 32 0 17.156-14.337 32-32.022 32h-223.978zM576 704h-256v-512.157c0-35.279 28.39-63.843 63.41-63.843h257.18c34.547 0 63.41 28.583 63.41 63.843v448.157h64v64h-192zM256 704h512v-576.295c0-35.184-28.994-63.705-63.81-63.705h-384.38c-35.241 0-63.81 29.163-63.81 63.705v576.295zM368.971 547.698c0 17.355 14.844 31.424 32 31.424 17.673 0 32-14.584 32-31.424v-321.151c0-17.355-14.844-31.424-32-31.424-17.673 0-32 14.584-32 31.424v321.151zM486.518 547.689c0 17.355 14.844 31.424 32 31.424 17.673 0 32-14.584 32-31.424v-321.151c0-17.355-14.844-31.424-32-31.424-17.673 0-32 14.584-32 31.424v321.151zM591.105 550.929c0 17.355 14.844 31.424 32 31.424 17.673 0 32-14.584 32-31.424v-321.151c0-17.355-14.844-31.424-32-31.424-17.673 0-32 14.584-32 31.424v321.151z" />
<glyph unicode="&#xe910;" glyph-name="ballon" d="M400.874 260.235v-258.716c0-5.257 4.148-9.52 8.941-9.52 4.938 0 8.941 4.045 8.941 9.52v259.695c74.113 8.152 137.546 66.52 171.119 149.527 13.916-4.865 28.478-7.449 43.47-7.449v-258.716c0-5.257 4.148-9.52 8.941-9.52 4.938 0 8.941 4.045 8.941 9.52v259.952c90.365 12.56 160.942 119.3 160.942 249.116 0 138.266-80.062 250.353-178.823 250.353-57.859 0-109.3-38.47-141.984-98.135-27.495 17.073-58.156 26.606-90.486 26.606-118.514 0-214.589-128.099-214.589-286.118s96.075-286.118 214.589-286.118zM519.921 784.44c26.156 50.959 67.234 83.795 113.423 83.795 79.009 0 143.059-96.075 143.059-214.589s-64.050-214.589-143.059-214.589c-10.966 0-21.644 1.85-31.902 5.355 9.058 31.667 14.020 66.030 14.020 101.938 0 99.297-37.938 186.781-95.541 238.087zM713.802 671.53c0 0 1.854 46.855-8.272 79.915s-36.422 63.144-36.422 63.144c0 0 33.212-13.54 47.866-60.445s-3.173-82.613-3.173-82.613zM526.026 492.706c0 0 3.707 81.997-16.544 139.851s-72.843 110.503-72.843 110.503c0 0 66.423-23.694 95.732-105.78s-6.344-144.573-6.344-144.573z" />
<glyph unicode="&#xe911;" glyph-name="download" d="M261.937 695.064c25.19 114.92 127.582 200.936 250.063 200.936s224.873-86.016 250.063-200.936c77.657-24.609 133.937-97.264 133.937-183.064 0-106.039-85.961-192-192-192v64c70.692 0 128 57.308 128 128s-57.308 128-128 128c0 106.039-85.961 192-192 192s-192-85.961-192-192c-70.692 0-128-57.308-128-128s57.308-128 128-128v-64c-106.039 0-192 85.961-192 192 0 85.8 56.28 158.455 133.937 183.064zM576 320h77.81c36.107 0 43.967-20.284 18.683-45.305l-114.723-113.528c-25.248-24.985-66.279-25.021-91.563 0l-114.723 113.528c-25.248 24.985-16.92 45.305 18.683 45.305h77.833v128h128v-128z" />
<glyph unicode="&#xe912;" glyph-name="cancel_border_bold" d="M640.725 455.039l158.28 158.28c24.741 24.741 25.127 65.607 0.159 90.574l-45.349 45.349c-25.175 25.175-65.519 24.896-90.574-0.159l-158.28-158.28-158.28 158.28c-24.741 24.741-65.607 25.127-90.574 0.159l-45.349-45.349c-25.175-25.175-24.896-65.519 0.159-90.574l158.28-158.28-158.28-158.28c-24.741-24.741-25.127-65.607-0.159-90.574l45.349-45.349c25.175-25.175 65.519-24.896 90.574 0.159l158.28 158.28 158.28-158.28c24.741-24.741 65.607-25.127 90.574-0.159l45.349 45.349c25.175 25.175 24.896 65.519-0.159 90.574l-158.28 158.28z" />
<glyph unicode="&#xe913;" glyph-name="cancel_border" d="M601.264 470.171l226.274 226.274-90.51 90.51-226.274-226.274-226.274 226.274-90.51-90.51 226.274-226.274-226.274-226.274 90.51-90.51 226.274 226.274 226.274-226.274 90.51 90.51-226.274 226.274z" />
<glyph unicode="&#xe914;" glyph-name="cancel" d="M602.51 448l135.973-135.973c24.879-24.879 24.96-65.134-0.208-90.301-24.994-24.994-65.876-24.634-90.301-0.208l-135.973 135.973-135.973-135.973c-24.879-24.879-65.134-24.96-90.301 0.208-24.994 24.994-24.634 65.876-0.208 90.301l135.973 135.973-135.973 135.973c-24.879 24.879-24.96 65.134 0.208 90.301 24.994 24.994 65.876 24.634 90.301 0.208l135.973-135.973 135.973 135.973c24.879 24.879 65.134 24.96 90.301-0.208 24.994-24.994 24.634-65.876 0.208-90.301l-135.973-135.973zM512 0c247.424 0 448 200.576 448 448s-200.576 448-448 448c-247.424 0-448-200.576-448-448s200.576-448 448-448z" />
<glyph unicode="&#xe915;" glyph-name="car" d="M204.765 609.684h142.182v-77.474h-219.538c-34.547 0-63.41-28.922-63.41-64.6v-126.801c0-36.225 28.39-64.6 63.41-64.6h32.697c2.647 62.768 54.37 112.842 117.788 112.842 65.111 0 117.895-52.783 117.895-117.895 0-4.456-0.247-8.854-0.729-13.181 5.032-1.29 10.301-1.977 15.729-1.977h221.754c-0.637 4.963-0.965 10.022-0.965 15.158 0 65.111 52.783 117.895 117.895 117.895s117.895-52.783 117.895-117.895c0-4.992-0.31-9.911-0.912-14.74 31.812 3.642 56.491 30.634 56.491 63.392v384.38c0 34.816-28.583 63.81-63.843 63.81h-448.314c-35.279 0-63.843-28.569-63.843-63.81v-30.506h-157.241c-9.56 0-17.983-4.214-23.691-10.89-0.801-0.772-1.57-1.594-2.301-2.466l-40.753-48.568c-11.957-14.25-9.787-33.952 3.752-45.312 13.142-11.028 33.809-9.491 45.275 4.174l32.776 39.061zM749.474 175.158c53.019 0 96 42.981 96 96s-42.981 96-96 96c-53.019 0-96-42.981-96-96s42.981-96 96-96zM277.895 175.158c53.019 0 96 42.981 96 96s-42.981 96-96 96c-53.019 0-96-42.981-96-96s42.981-96 96-96z" />
<glyph unicode="&#xe916;" glyph-name="clock" d="M228.395 686.845c76.369 88.864 189.555 145.155 315.605 145.155 229.75 0 416-186.717 416-416 0-229.75-186.717-416-416-416-196.656 0-361.441 136.8-404.833 320h66.123c41.834-147.541 177.638-256 338.71-256 194.009 0 352 157.596 352 352 0 194.009-157.596 352-352 352-108.007 0-204.852-48.844-269.488-125.691l84.851-81.939c25.973-25.082 17.537-45.133-18.032-45.568l-161.388-1.972c-35.518-0.434-65.058 28.042-65.865 63.605l-3.662 161.358c-0.806 35.511 19.3 44.343 44.911 19.611l73.068-70.561z" />
<glyph unicode="&#xe917;" glyph-name="cloud" d="M704.886 256.002c105.631 0.477 191.114 86.255 191.114 191.998 0 85.8-56.28 158.455-133.937 183.064-25.19 114.92-127.582 200.936-250.063 200.936s-224.873-86.016-250.063-200.936c-77.657-24.609-133.937-97.264-133.937-183.064 0-106.039 85.961-192 192-192v64c-70.692 0-128 57.308-128 128s57.308 128 128 128c0 106.039 85.961 192 192 192s192-85.961 192-192c70.692 0 128-57.308 128-128s-57.308-128-128-128v-61.531c-4.727 11.64-16.169 20.208-29.534 20.208h-256.295c-18.103 0-31.853-14.327-31.853-32 0-17.156 14.261-32 31.853-32h256.295c18.103 0 31.853 14.327 31.853 32 0 3.217-0.502 6.353-1.432 9.325zM714.339 375.166l-5.491 34.667c17.163 13.922 26.639 36.364 22.934 59.761s-19.653 41.812-40.278 49.75l-5.491 34.667c38.889-7.184 70.836-38.127 77.375-79.411s-14.283-80.585-49.049-99.435zM384 352c0-17.156 14.261-32 31.853-32h256.295c18.103 0 31.853 14.327 31.853 32 0 17.156-14.261 32-31.853 32h-256.295c-18.103 0-31.853-14.327-31.853-32zM419.556 384h35.556v-32h-35.556v32zM421.874 278.677h35.556v-32h-35.556v32zM384.806 156.269c0-17.156 14.261-32 31.853-32h256.295c18.103 0 31.853 14.327 31.853 32 0 17.156-14.261 32-31.853 32h-256.295c-18.103 0-31.853-14.327-31.853-32zM420.362 188.269h35.556v-32h-35.556v32z" />
<glyph unicode="&#xe918;" glyph-name="coin" d="M544 576c194.404 0 352 57.308 352 128s-157.596 128-352 128c-194.404 0-352-57.308-352-128s157.596-128 352-128zM884.91 608c7.239-10.228 11.090-20.95 11.090-32 0-70.692-157.596-128-352-128s-352 57.308-352 128c0 11.050 3.85 21.772 11.090 32 39.076-55.207 176.893-96 340.91-96s301.835 40.793 340.91 96v0zM884.91 480c7.239-10.228 11.090-20.95 11.090-32 0-70.692-157.596-128-352-128s-352 57.308-352 128c0 11.050 3.85 21.772 11.090 32 39.076-55.207 176.893-96 340.91-96s301.835 40.793 340.91 96v0zM884.91 352c7.239-10.228 11.090-20.95 11.090-32 0-70.692-157.596-128-352-128s-352 57.308-352 128c0 11.050 3.85 21.772 11.090 32 39.076-55.207 176.893-96 340.91-96s301.835 40.793 340.91 96v0zM884.91 224c7.239-10.228 11.090-20.95 11.090-32 0-70.692-157.596-128-352-128s-352 57.308-352 128c0 11.050 3.85 21.772 11.090 32 39.076-55.207 176.893-96 340.91-96s301.835 40.793 340.91 96v0z" />
<glyph unicode="&#xe919;" glyph-name="contract" d="M832.748 128.417v636.906c0 34.663-28.822 63.435-64.376 63.435h-517.985c-0.376 0-0.75-0.003-1.124-0.009v3.092c0 35.434 29.163 64.158 63.705 64.158h512.589c35.184 0 63.705-29.169 63.705-64.158v-639.683c0-32.945-25.21-60.090-56.515-63.741zM125.572 714.022v-639.683c0-34.99 28.522-64.158 63.705-64.158h512.589c34.543 0 63.705 28.725 63.705 64.158v639.683c0 34.99-28.522 64.158-63.705 64.158h-512.589c-34.543 0-63.705-28.725-63.705-64.158zM249.263 581.053c0 17.673 14.584 32 31.424 32h321.151c17.355 0 31.424-14.844 31.424-32 0-17.673-14.584-32-31.424-32h-321.151c-17.355 0-31.424 14.844-31.424 32zM246.844 475.831c0 17.673 14.584 32 31.424 32h321.151c17.355 0 31.424-14.844 31.424-32 0-17.673-14.584-32-31.424-32h-321.151c-17.355 0-31.424 14.844-31.424 32zM251.682 349.333c0 17.673 13.764 32 31.391 32h193.219c17.337 0 31.391-14.844 31.391-32 0-17.673-13.764-32-31.391-32h-193.219c-17.337 0-31.391 14.844-31.391 32z" />
<glyph unicode="&#xe91a;" glyph-name="upload" d="M256.415 697.758c25.19 114.92 127.582 200.936 250.063 200.936s224.873-86.016 250.063-200.936c77.657-24.609 133.937-97.264 133.937-183.064 0-106.039-85.961-192-192-192v64c70.692 0 128 57.308 128 128s-57.308 128-128 128c0 106.039-85.961 192-192 192s-192-85.961-192-192c-70.692 0-128-57.308-128-128s57.308-128 128-128v-64c-106.039 0-192 85.961-192 192 0 85.8 56.28 158.455 133.937 183.064zM570.479 258.694h77.81c36.107 0 43.967 20.284 18.683 45.305l-114.723 113.528c-25.248 24.985-66.279 25.021-91.563 0l-114.723-113.528c-25.248-24.985-16.92-45.305 18.683-45.305h77.833v-128h128v128z" />
<glyph unicode="&#xe91b;" glyph-name="dropbox" d="M655.145 830.401l304.855-163.39-138.596-121.424-302.962 163.39 136.703 121.424zM815.723 532.131l142.013-128.79-301.068-153.779-138.226 124.946 297.281 157.624zM206.013 534.053l297.281-159.546-140.12-126.868-299.175 157.624 142.013 128.79zM365.068 832l138.226-124.946-297.281-161.468-140.12 123.023 299.175 163.39zM213.587 290.303v-123.864l275.692-146.556v293.113l-121.081-109.681-154.611 86.988zM526.016 312.995v-289.33l275.692 158.848v101.197l-152.748-80.396-122.944 109.681z" />
<glyph unicode="&#xe91c;" glyph-name="edit" d="M785.319 814.975l-339.392-339.392 90.51-90.51 339.392 339.392c12.202 12.202 12.422 32.873-0.192 45.487l-44.831 44.831c-13.153 13.153-32.979 12.7-45.487 0.192zM763.885 769.597c6.129 6.129 16.346 5.85 22.412-0.215 6.248-6.248 6.448-16.18 0.215-22.412l-68.313-68.313c-6.129-6.129-16.346-5.85-22.412 0.215-6.248 6.248-6.448 16.18-0.215 22.412l68.313 68.313zM434.442 459.886l90.51-90.51-133.989-47.031 43.479 137.54zM624.471 832h-432.313c-34.99 0-64.158-28.725-64.158-64.158v-639.683c0-34.99 28.725-64.158 64.158-64.158h639.683c34.99 0 64.158 28.725 64.158 64.158v432.313l-64-64v-368.471h-640v640h368.471l64 64z" />
<glyph unicode="&#xe91d;" glyph-name="feekback" d="M662.312 512l-206.679-282.631c-34.447-46.389-51.67-83.615-51.67-111.678 0-18.327 8.612-33.217 25.835-44.671s39.926-17.181 68.11-17.181c48.538 0 126.042 21.19 232.514 63.57l37.578-12.027-23.486-9.45c-89.248-38.372-155.009-64.286-197.284-77.745s-81.419-20.188-117.431-20.188c-48.538 0-89.639 9.020-123.303 27.060s-50.495 40.519-50.495 67.436c0 17.181 9.394 44.385 28.183 81.611l147.963 300.671 230.165 35.221zM513.094 832c37.926 0 68.558-11.669 91.897-35.009s35.009-53.971 35.009-91.897c0-36.467-12.399-67.1-37.197-91.897s-54.701-37.197-89.709-37.197c-33.55 0-63.453 13.128-89.709 39.385s-39.385 56.159-39.385 89.709c0 35.009 12.399 64.912 37.197 89.709s55.43 37.197 91.897 37.197z" />
<glyph unicode="&#xe91e;" glyph-name="file" d="M576 774.124c0 35.593-28.648 64-63.988 64h-192.025c-35.59 0-63.988-28.654-63.988-64h-95.978c-17.366 0-32.022-14.327-32.022-32v-32h768v32c0 17.156-14.337 32-32.022 32h-287.978zM128 646.124h768v-448.19c0-35.241-29.169-63.81-64.158-63.81h-639.683c-35.434 0-64.158 28.994-64.158 63.81v448.19z" />
<glyph unicode="&#xe91f;" glyph-name="flowers" d="M279.95 189.219c4.524-3.057 9.701-5.383 15.203-6.338 0 0 21.665-4.434 39.503-5.081 1.085-0.039 2.128-0.060 3.121-0.060 6.869 0 15.845 0.861 25.182 2.094 4.423-64.712 58.317-115.833 124.151-115.833 28.015 0 53.868 9.257 74.667 24.88 0 68.738-55.716 124.454-124.444 124.454-26.109 0-50.339-8.040-70.351-21.78l-26.559 1.816c-12.847 0.879-31.61 4.57-47.239 9.082l171.184 171.184c6.998 6.998 7.012 18.043 0.208 24.847-6.605 6.605-17.928 6.711-24.847-0.208l-326.928-326.928c-6.998-6.998-7.012-18.043-0.208-24.847 6.605-6.605 17.928-6.711 24.847 0.208l142.51 142.51zM436.083 737.251c68.038 40.547 214.757 27.166 327.932-30.001l161.865-81.76c0 0-120.523-138.998-131.451-149.926-10.323-10.323-37.727-58.931-37.727-58.931-70.156-93.412-199.449-96.716-288.874-7.291l-42.869 42.869c-89.385 89.385-78.4 221.278 11.125 285.040zM816.105 730.331c10.188 9.766 28.748 12.879 41.403 6.978l38.098-17.765c12.678-5.912 26.532-21.939 30.666-34.924l7.709-24.219-2.794-12.601c0 0-35.156 20.588-58.768 31.599-21.502 10.027-76.574 31.512-76.574 31.512l20.26 19.421zM742.692 753.795c0 0-47.703 17.576-76.095 22.294-26.508 4.405-88.606 5.075-88.606 5.075l46.115 39.824c20.135 17.388 50.020 15.19 67.040-5.259l51.547-61.934zM249.926 308.053c12.493 50.795-8.16 106.014-54.936 135.243-23.758 14.846-50.588 20.695-76.505 18.468-36.426-58.293-18.701-135.067 39.585-171.488 17.4-10.872 36.447-16.92 55.576-18.503l36.28 36.28z" />
<glyph unicode="&#xe920;" glyph-name="formdata" d="M938.24 167.46v-64h-860.16v64h860.16zM174.519 576h128v-384h-128v384zM353.719 704h128v-512h-128v512zM532.919 512h128v-320h-128v320zM712.119 576h128v-384h-128v384z" />
<glyph unicode="&#xe921;" glyph-name="function" d="M215.296 479.365c-4.188 18.372-6.4 37.497-6.4 57.138 0 51.919 15.456 100.229 42.018 140.578l-92.128 98.796c-9.134-5.021-19.626-7.877-30.785-7.877-35.346 0-64 28.654-64 64s28.654 64 64 64c35.346 0 64-28.654 64-64 0-19.542-8.758-37.038-22.564-48.777l88.954-95.391c46.59 63.47 121.736 104.671 206.505 104.671 17.736 0 35.051-1.804 51.771-5.238l3.182 25.917c-12.339 4.441-21.162 16.249-21.162 30.118 0 17.673 14.327 32 32 32s32-14.327 32-32c0-17.058-13.347-30.998-30.167-31.948l-3.314-26.994c43.892-11.356 83.216-34.063 114.653-64.803l46.067 54.901c-3.132 4.946-4.945 10.809-4.945 17.096 0 17.673 14.327 32 32 32s32-14.327 32-32c0-17.673-14.327-32-32-32-6.731 0-12.976 2.078-18.13 5.628l-46.021-54.846c25.487-27.541 44.994-60.695 56.461-97.4l84.601 54.941c-0.382 1.806-0.689 3.644-0.918 5.51-4.308 35.083 20.641 67.015 55.723 71.323s67.015-20.641 71.323-55.723c4.308-35.083-20.641-67.015-55.723-71.323-28.662-3.519-55.221 12.488-66.331 37.596l-85.018-55.211c5.189-20.318 7.948-41.608 7.948-63.542 0-49.915-14.286-96.494-38.992-135.871l45.057-23.957c3.352 1.191 6.96 1.84 10.721 1.84 17.673 0 32-14.327 32-32s-14.327-32-32-32c-17.673 0-32 14.327-32 32 0 8.627 3.414 16.456 8.964 22.211l-39.847 21.187c-25.438-36.356-60.080-65.799-100.546-84.945l102.046-140.454c5.476 4.384 12.424 7.006 19.985 7.006 17.673 0 32-14.327 32-32s-14.327-32-32-32c-17.673 0-32 14.327-32 32 0 6.292 1.816 12.159 4.952 17.108l-104.634 144.016c-30.643-12.97-64.336-20.142-99.705-20.142-1.125 0-2.248 0.007-3.369 0.022l8.049-115.108c2.736 0.714 5.551 1.254 8.435 1.609 35.083 4.308 67.015-20.641 71.323-55.723s-20.641-67.015-55.723-71.323c-35.083-4.308-67.015 20.641-71.323 55.723-3.386 27.578 11.305 53.208 34.786 65.005l-8.412 120.302c-45.974 2.877-88.658 17.888-124.886 41.869l-10.802-14.868c4.397-5.48 7.027-12.438 7.027-20.010 0-17.673-14.327-32-32-32s-32 14.327-32 32c0 17.673 14.327 32 32 32 5.466 0 10.611-1.37 15.112-3.786l10.168 13.995c-45.893 33.786-80.104 82.518-95.452 139.017l-90.272-36.472c0.292-1.737 0.444-3.522 0.444-5.342 0-17.673-14.327-32-32-32s-32 14.327-32 32c0 17.673 14.327 32 32 32 12.193 0 22.794-6.82 28.195-16.853l91.101 36.807z" />
<glyph unicode="&#xe922;" glyph-name="get_border" d="M64 768.137c0 35.271 28.797 63.863 64.438 63.863h767.124c35.588 0 64.438-29.235 64.438-63.863v-513.857c0-35.271-28.032-63.863-64.204-63.863h-383.913l-136.852-92.573c-29.183-19.74-73.033-15.694-98.040 9.136l-84.035 83.438h-64.477c-35.61 0-64.477 29.235-64.477 63.863v513.857zM128 768.137v-513.857c0 0.657 0.363 0.295 0.477 0.295h90.807l102.742-102.012c3.282-3.259 13.285-4.188 17.205-1.537l153.077 103.549h403.487c0.581 0 0.204-0.378 0.204-0.295v513.857c0-0.648-0.354-0.295-0.438-0.295h-767.124c-0.432 0-0.438-0.007-0.438 0.295zM322.493 422.991c35.346 0 64 28.725 64 64.158s-28.654 64.158-64 64.158c-35.346 0-64-28.725-64-64.158s28.654-64.158 64-64.158zM705.563 420.738c35.346 0 64 28.725 64 64.158s-28.654 64.158-64 64.158c-35.346 0-64-28.725-64-64.158s28.654-64.158 64-64.158zM520 422.991c35.346 0 64 28.725 64 64.158s-28.654 64.158-64 64.158c-35.346 0-64-28.725-64-64.158s28.654-64.158 64-64.158z" />
<glyph unicode="&#xe923;" glyph-name="get" d="M128.438 832h767.124c35.588 0 64.438-29.235 64.438-63.863v-513.857c0-35.271-28.032-63.863-64.204-63.863h-383.913l-136.852-92.573c-29.183-19.74-73.033-15.694-98.040 9.136l-84.035 83.438h-64.477c-35.61 0-64.477 29.235-64.477 63.863v513.857c0 35.271 28.797 63.863 64.438 63.863zM322.493 422.991c35.346 0 64 28.725 64 64.158s-28.654 64.158-64 64.158c-35.346 0-64-28.725-64-64.158s28.654-64.158 64-64.158zM705.563 420.738c35.346 0 64 28.725 64 64.158s-28.654 64.158-64 64.158c-35.346 0-64-28.725-64-64.158s28.654-64.158 64-64.158zM520 422.991c35.346 0 64 28.725 64 64.158s-28.654 64.158-64 64.158c-35.346 0-64-28.725-64-64.158s28.654-64.158 64-64.158z" />
<glyph unicode="&#xe924;" glyph-name="goback" d="M581.801 407.026l137.603-137.603-42.238-42.238-148.235 148.235c-7.991 7.991-10.146 19.702-6.863 29.897v226.52h59.733v-224.812zM128 416c0-229.283 186.25-416 416-416 229.283 0 416 186.25 416 416 0 229.283-186.25 416-416 416-229.283 0-416-186.25-416-416zM192 416c0 194.404 157.991 352 352 352 194.404 0 352-157.991 352-352 0-194.404-157.991-352-352-352-194.404 0-352 157.991-352 352zM795.909 822.836c-12.382 12.382-11.923 32.915 0.209 45.046 12.497 12.497 32.391 12.864 45.046 0.209l90.927-90.927c12.382-12.382 11.923-32.915-0.209-45.046-12.497-12.497-32.391-12.864-45.046-0.209l-90.927 90.927zM292.091 822.836c12.382 12.382 11.923 32.915-0.209 45.046-12.497 12.497-32.391 12.864-45.046 0.209l-90.927-90.927c-12.382-12.382-11.923-32.915 0.209-45.046 12.497-12.497 32.391-12.864 45.046-0.209l90.927 90.927z" />
<glyph unicode="&#xe925;" glyph-name="hotel" d="M416.227 759.094v-71.313l-156.536-43.878v-515.903h-67.691v568.242l224.227 62.852zM448 768v-640h192v518.055l-192 121.945zM673.851 324.515v-192h192v132.172l-192 59.828zM703.746 255.913h32v-32h-32v32zM754.082 255.956h32v-32h-32v32zM803.23 255.651h32v-32h-32v32zM702.012 204.624h32v-32h-32v32zM752.387 204.585h32v-32h-32v32zM802.367 206.269h32v-32h-32v32zM65.543 92.647h896v-64h-896v64z" />
<glyph unicode="&#xe926;" glyph-name="account" d="M699.306 566.938l2.77 44.899c6.512 105.555-74.167 191.212-180.208 191.212h-51.857c-7.256 0-14.55-0.773-21.803-2.261l-84.276 19.374 12.243-59.604c-35.856-35.055-60.335-88.653-56.629-148.721l2.905-47.089c-12.718-5.239-21.492-18.671-19.95-33.338l4.711-44.818c1.88-17.883 17.627-30.65 35.204-28.803 4.040 0.425 7.865 1.642 11.327 3.49 18.809-29.752 45.109-54.543 75.972-71.626v-22.189c-29.79-11.519-187.798-72.52-223.457-84.329-1.762-0.583-3.458-1.162-5.090-1.734-40.957-4.518-73.167-39.413-73.167-81.791v-18.187c0-35.433 28.725-64.099 64.158-64.099h639.683c34.99 0 64.158 28.698 64.158 64.099v18.187c0 43.47-33.204 78.605-75.439 82.014-1.435 0.499-2.918 1.003-4.45 1.51-35.052 11.607-188.323 70.747-221.826 83.698v24.128c30.584 17.443 56.536 42.502 74.949 72.449 3.895-2.397 8.319-3.974 13.035-4.469 17.576-1.847 33.324 10.92 35.204 28.803l4.711 44.818c1.657 15.768-8.608 30.108-22.878 34.376z" />
<glyph unicode="&#xe927;" glyph-name="meeting" d="M957.646 273.018c0.323-0.033 0.646-0.067 0.968-0.104-1.713 51.951-34.383 96.067-80.157 114.493 33.836 14.843 57.471 48.639 57.471 87.955 0 53.019-42.981 96-96 96s-96-42.981-96-96c0-36.265 20.109-67.833 49.784-84.164-52.119-15.699-90.228-63.729-91.015-120.779 7.157 1.976 14.699 3.032 22.492 3.032h9.498c0.448 52.636 43.255 95.167 95.997 95.167 50.562 0 91.994-39.088 95.726-88.695-0.322-1.265-0.493-2.591-0.493-3.957 0-8.837 7.163-16 16-16 7.829 0 14.344 5.622 15.728 13.049v0zM312.543 443.812c-5.352 47.951-46.024 85.233-95.403 85.233s-90.051-37.282-95.403-85.233h190.806zM94.948 432.225c-1.958-0.393-3.891-0.854-5.797-1.38 0.006 0.461 0.015 0.921 0.026 1.38h-20.266c-4.786 4.079-9.729 7.944-14.813 11.586v0h35.882c5.889 51.266 42.066 93.318 90.185 107.812-29.675 16.33-49.784 47.899-49.784 84.164 0 53.019 42.981 96 96 96s96-42.981 96-96c0-39.316-23.634-73.112-57.471-87.955 41.562-16.731 72.321-54.641 78.911-100.366 5.78 51.404 42.005 93.595 90.219 108.117-29.675 16.33-49.784 47.899-49.784 84.164 0 53.019 42.981 96 96 96s96-42.981 96-96c0-39.316-23.634-73.112-57.471-87.955 44.743-18.011 76.966-60.569 79.994-110.997 77.757-14.886 136.407-83.092 136.407-164.983 0-92.595-75.376-168-168.357-168h-367.058c0.551 3.845 1.002 7.708 1.353 11.586h345.258c86.569 0 156.746 69.427 156.746 156.414 0 86.385-70.099 156.414-156.746 156.414h-451.437zM566.778 443.812c-3.492 49.843-45.032 89.193-95.763 89.193s-92.271-39.35-95.762-89.193h191.525z" />
<glyph unicode="&#xe928;" glyph-name="menoey" d="M128 309.333c35.346 0 64-28.407 64-64h512c0 35.593 28.654 64 64 64v256c-35.346 0-64 28.407-64 64h-512c0-35.593-28.654-64-64-64v-256zM64 629.523c0 35.241 29.169 63.81 64.158 63.81h639.683c35.434 0 64.158-28.994 64.158-63.81v-384.38c0-35.241-29.169-63.81-64.158-63.81h-639.683c-35.434 0-64.158 28.994-64.158 63.81v384.38zM474.667 282.667c82.475 0 149.333 66.859 149.333 149.333s-66.859 149.333-149.333 149.333c-82.475 0-149.333-66.859-149.333-149.333s66.859-149.333 149.333-149.333zM567.745 503.914l-61.031-9.68c-3.063 7.766-5.824 13.152-8.285 16.16s-6.535 6.043-12.223 9.105v-47.414c33.25-8.859 55.453-18.211 66.609-28.055 14.766-13.234 22.148-30.023 22.148-50.367 0-11.922-2.652-22.859-7.957-32.813s-12.086-18.266-20.344-24.937c-8.258-6.672-17.035-11.512-26.332-14.52s-20.672-4.785-34.125-5.332v-31.008h-23.953v31.008c-16.078 1.422-29.121 4.020-39.129 7.793s-18.648 8.996-25.922 15.668c-7.273 6.672-12.879 13.863-16.816 21.574s-6.891 17.035-8.859 27.973l66.281 7.711c1.969-10.828 4.621-18.648 7.957-23.461s8.832-9.078 16.488-12.797v57.914c-22.094 6.125-37.762 11.43-47.004 15.914s-17.254 11.676-24.035 21.574c-6.781 9.898-10.172 21.957-10.172 36.176 0 19.469 6.809 35.738 20.426 48.809s33.879 20.316 60.785 21.738v16.242h23.953v-16.242c24.5-1.531 43.23-7.328 56.191-17.391s21.41-23.844 25.348-41.344zM144.503 730.667c10.217 22.026 32.71 37.333 58.322 37.333h639.683c35.434 0 64.158-28.994 64.158-63.81v-384.38c0-31.453-23.235-57.591-53.105-62.847 3.426 7.813 5.319 16.442 5.319 25.513v384.38c0 34.816-28.903 63.81-64.556 63.81h-649.821z" />
<glyph unicode="&#xe929;" glyph-name="menu" d="M64 704h896v-64h-896v64zM64 448h896v-64h-896v64zM64 192h896v-64h-896v64z" />
<glyph unicode="&#xe92a;" glyph-name="message_border" d="M742.76 312.698c14.427-90.702 37.634-223.325 37.634-223.325 6.070-35.016-16.683-55.987-47.241-47.799-218.53 58.555-593.972 159.154-593.972 159.154-34.031 9.119-42.863 37.473-18.744 64.743 0 0 93.833 103.278 148.804 179.036-17.304 49.827-20.447 104.493-6.003 158.399 39.989 149.242 199.635 236.136 356.579 194.083s251.754-197.128 211.765-346.371c-14.973-55.88-46.721-103.019-88.821-137.921zM769.501 293.365c43.963 38.404 77.098 89.2 93.106 148.942 44.554 166.279-60.446 338.887-234.525 385.531s-351.316-50.339-395.87-216.618c-15.566-58.091-12.877-116.955 4.633-170.951-63.179-86.168-160.105-196.358-160.105-196.358-23.087-26.865-14.39-55.778 19.435-64.841l657.29-176.12c21.274-5.7 2.055-0.551 2.055-0.551 34.031-9.119 57.288 11.688 51.761 46.522 0 0-22.529 140.775-37.779 244.443zM617.725 11.389c-26.070-45.068-74.797-75.389-130.607-75.389s-104.536 30.321-130.607 75.389h261.213zM597.37 884.566c2.59 8.472 11.288 13.323 19.738 10.74l92.626-28.319c8.311-2.541 12.873-11.717 10.358-19.941-2.59-8.472-11.288-13.323-19.738-10.74l-92.626 28.319c-8.311 2.541-12.873 11.717-10.358 19.941z" />
<glyph unicode="&#xe92b;" glyph-name="message" d="M682.055 817.091c123.106-69.081 189.588-210.269 152.926-347.092-15.872-59.233-48.893-109.51-92.695-147.343 0.532-2.46 0.964-4.89 1.291-7.289 13.164-96.409 44.704-293.47 44.704-293.47 5.549-34.98-17.183-56.041-51.616-46.815 0 0 19.892-5.33-0.994 0.266l-643.263 172.362c-34.328 9.198-43.095 38.615-20.176 65.294 0 0 107.338 122.001 168.056 208.073-33.571 64.681-44.128 140.361-24.195 214.752 38.592 144.026 178.58 235.097 328.376 223.093-0.038 3.204 0.35 6.44 1.204 9.627 5.29 19.742 25.98 31.351 45.658 26.078l70.821-18.976c19.927-5.339 31.637-26.249 26.502-45.413-1.323-4.936-3.608-9.364-6.6-13.147zM553.576 10.013c-25.594-44.245-73.432-74.013-128.223-74.013s-102.628 29.768-128.223 74.013h256.445z" />
<glyph unicode="&#xe92c;" glyph-name="monitor" d="M892.814 270.304c2.102 16.268 3.186 32.856 3.186 49.696 0 117.486-52.762 222.65-135.883 293.088l1.129 2.942c-2.66 0.897-5.245 2.161-7.685 3.807-14.652 9.883-18.518 29.772-8.635 44.423 8.758 12.984 25.375 17.498 39.241 11.479l0.042 0.109c0.131-0.1 0.262-0.201 0.393-0.301 1.628-0.736 3.217-1.619 4.748-2.651 2.996-2.021 5.541-4.46 7.609-7.187 99.573-82.17 163.042-206.527 163.042-345.708 0-21.729-1.547-43.097-4.537-64h-0.83c-0.486-5.155-2.233-10.266-5.333-14.861-9.883-14.652-29.772-18.518-44.423-8.635-8.252 5.566-13.082 14.305-13.963 23.496h-0.224c0.050 0.3 0.1 0.601 0.15 0.901-0.303 4.486 0.335 9.058 1.973 13.402zM130.693 274.287c-1.778 14.99-2.693 30.245-2.693 45.713 0 212.077 171.923 384 384 384 17.464 0 34.655-1.166 51.501-3.424 1.725-0.663 3.531-1.184 5.407-1.549 17.348-3.372 34.146 7.958 37.518 25.306s-7.958 34.146-25.306 37.518c-1.716 0.334-3.427 0.523-5.12 0.578v1.034c-20.903 2.99-42.271 4.537-64 4.537-247.424 0-448-200.576-448-448 0-21.729 1.547-43.097 4.537-64h0.916c0.322-1.33 0.734-2.654 1.237-3.966 6.333-16.499 24.843-24.74 41.342-18.407 10.206 3.918 17.252 12.495 19.644 22.373h1.633c-0.286 1.706-0.561 3.416-0.825 5.13 0.325 4.339-0.234 8.811-1.792 13.157zM686.445 711.993l7.755-4.477c6.438-3.717-2.825-48.36-20.593-99.435l-128.182-368.454c-17.812-51.199-69.86-70.991-115.436-44.677l-55.333 31.947c-45.942 26.524-54.374 81.384-19.026 122.309l254.999 295.236c35.434 41.025 69.429 71.239 75.816 67.552z" />
<glyph unicode="&#xe92d;" glyph-name="plain" d="M449.836 399.55l256.065-314.427 259.426 666.727-515.49-352.3zM424.704 375.881l65.008-68.835-127.083-147.857 62.075 216.691zM405.136 423.809l301.533 191.465-415.856-127.396 42.753-310.316 71.569 246.247zM963.37 751.271l-894.878-86.77 187.239-137.118 707.638 223.888z" />
<glyph unicode="&#xe92e;" glyph-name="present" d="M308.706 472.402v-408.402h90.353v461.661c5.385-16.223 11.327-31.337 17.707-43.418 19.696-54.115 69.892-80.207 69.892-80.207s12.844 37.925 25.504 53.674c11.243 13.986 46.205 35.531 46.205 35.531s-69.656 43.512-85.824 73.321c-1.804 3.325-3.44 7.114-4.925 11.247 15.892-3.040 31.939-4.574 47.060-4.574 39.369 0 59.903 13.546 70.387 34.882h310.935v-477.959c0-35.434-29.169-64.158-64.158-64.158h-639.683c-35.434 0-64.158 29.169-64.158 64.158v639.683c0 35.434 29.169 64.158 64.158 64.158h116.548v-91.71c-26.485 8.184-55.435 12.343-81.729 12.343-54.155 0-74.453-22.972-81.528-56.162h-17.449v-90.353h19.217c8.449-29.325 29.556-49.068 79.761-49.068 12.823 0 26.277 0.989 39.769 2.952-0.719-0.977-1.444-1.912-2.177-2.802-21.559-26.176-98.238-55.598-98.238-55.598s30.209-27.821 38.576-43.695c9.423-17.875 14.794-57.554 14.794-57.554s54.252 16.035 83.912 65.398c1.693 2.102 3.391 4.324 5.092 6.651zM399.059 738.861v93.139h432.783c35.434 0 64.158-29.169 64.158-64.158v-71.371h-301.678c-3.996 41.38-20.733 71.711-79.644 71.711-38.479 0-82.947-9.938-115.62-29.321zM352.843 591.451l1.799-1.081c0 0-27.419-72.824-52.855-104.413-19.403-32.292-54.893-42.782-54.893-42.782s-3.514 25.957-9.678 37.651c-5.474 10.385-25.236 28.584-25.236 28.584s50.162 19.247 64.265 36.371c8.475 10.291 15.515 29.82 20.358 46.388-23.268-9.978-50.806-15.069-75.276-15.069-56.072 0-63.749 34.806-63.749 77.742s7.676 77.742 63.749 77.742c30.935 0 66.773-8.136 92.688-23.997 10.171 6.811 22.403 10.783 35.563 10.783 12.983 0 25.062-3.866 35.151-10.509 25.946 16.028 62 24.251 93.1 24.251 56.072 0 63.749-34.806 63.749-77.742s-7.676-77.742-63.749-77.742c-7.62 0-15.538 0.494-23.531 1.475 1.878-13.002 4.807-25.958 9.373-34.377 10.577-19.5 56.144-47.965 56.144-47.965s-22.871-14.095-30.226-23.244c-8.282-10.303-16.684-35.112-16.684-35.112s-32.837 17.069-45.722 52.47c-15.194 28.768-26.578 83.825-30.487 104.483-4.173 2.006-8.178 4.181-11.967 6.521-9.238-6.083-20.145-9.837-31.886-10.427v0z" />
<glyph unicode="&#xe92f;" glyph-name="organization" d="M544 384v128h256v-128h-31.4c-36.225 0-64.6-28.922-64.6-64.6v-126.801c0-36.225 28.922-64.6 64.6-64.6h126.801c36.225 0 64.6 28.922 64.6 64.6v126.801c0 36.225-28.922 64.6-64.6 64.6h-31.4v192h-320v64h31.4c36.225 0 64.6 28.922 64.6 64.6v126.801c0 36.225-28.922 64.6-64.6 64.6h-126.801c-36.225 0-64.6-28.922-64.6-64.6v-126.801c0-36.225 28.922-64.6 64.6-64.6h31.4v-64h-320v-192h-31.4c-36.225 0-64.6-28.922-64.6-64.6v-126.801c0-36.225 28.922-64.6 64.6-64.6h126.801c36.225 0 64.6 28.922 64.6 64.6v126.801c0 36.225-28.922 64.6-64.6 64.6h-31.4v128h256v-128h-31.4c-36.225 0-64.6-28.922-64.6-64.6v-126.801c0-36.225 28.922-64.6 64.6-64.6h126.801c36.225 0 64.6 28.922 64.6 64.6v126.801c0 36.225-28.922 64.6-64.6 64.6h-31.4z" />
<glyph unicode="&#xe930;" glyph-name="pus_border" d="M128 512h768v-128h-768v128z" />
<glyph unicode="&#xe931;" glyph-name="pus" d="M512 0c247.424 0 448 200.576 448 448s-200.576 448-448 448c-247.424 0-448-200.576-448-448s200.576-448 448-448zM192 448c0 35.346 29.163 64 63.705 64h512.589c35.184 0 63.705-28.407 63.705-64 0-35.346-29.163-64-63.705-64h-512.589c-35.184 0-63.705 28.407-63.705 64z" />
<glyph unicode="&#xe932;" glyph-name="question" d="M456.010 196.914l19.54-82.546c1.129-7.64 7.926-13.559 15.231-13.559 0 0 32.059-13.044 53.219-13.044 14.319 0 53.219 13.044 53.219 13.044 7.518 0 14.125 6.070 15.231 13.559l19.54 82.546c14.445 6.176 28.109 13.827 40.803 22.763 57.584 40.536 95.206 107.522 95.206 183.294 0 123.712-100.288 224-224 224s-224-100.288-224-224c0-73.423 35.325-138.594 89.907-179.447 14.164-10.601 29.625-19.565 46.102-26.61zM430.869 151.070c-21.185 9.058-41.063 20.583-59.274 34.213-70.177 52.525-115.595 136.317-115.595 230.717 0 159.058 128.942 288 288 288s288-128.942 288-288c0-97.422-48.372-183.545-122.408-235.663-16.321-11.489-33.889-21.326-52.461-29.267l-25.123-106.131c-1.422-9.628-9.917-17.432-19.583-17.432 0 0-50.014-16.771-68.424-16.771-27.206 0-68.424 16.771-68.424 16.771-9.393 0-18.132 7.609-19.583 17.432l-25.123 106.131zM534.955 199.623c7.168 0 13.141 5.973 13.141 13.141 0 3.584-1.792 7.168-4.181 10.155-2.987 2.389-11.947 13.739-11.947 29.269 0 25.088 18.517 42.411 44.203 60.928 38.827 28.075 75.861 60.331 75.861 120.064 0 23.296-7.765 43.605-23.296 59.136-17.323 17.323-43.008 26.88-74.667 26.88-10.155 0-20.309-1.195-28.672-4.181-8.96-2.389-16.725-5.376-23.893-9.557-7.168 2.389-14.336 2.389-19.115 2.389-40.021 0-68.096-23.893-68.096-39.424 0-7.765 5.973-12.544 13.739-12.544 5.376 0 8.363 3.584 11.947 9.557 4.181 7.168 19.712 19.712 40.021 18.517-13.141-12.544-18.517-30.464-18.517-45.397 0-36.437 25.685-53.76 48.981-53.76 23.893 0 47.787 20.309 47.787 53.76 0 23.296-9.557 43.008-28.672 54.357 7.168 1.792 15.531 2.389 21.504 2.389 47.189 0 74.069-27.477 74.069-61.525 0-48.384-28.672-74.667-59.136-96.768-34.645-25.088-60.331-48.384-60.331-84.821 0-25.685 16.128-52.565 29.269-52.565zM515.84 143.474c-1.195-8.363 4.779-16.128 15.531-16.128 7.168 0 12.544 5.376 13.739 11.349l3.584 19.712c0.597 6.571-4.181 13.739-12.544 14.933-8.96 1.195-16.128-3.584-17.323-11.349l-2.987-18.517zM294.215 793.675c-8.919 15.449-3.295 35.394 11.563 43.972 15.305 8.837 34.562 4.137 43.863-11.972l31.7-54.906c8.919-15.449 3.295-35.394-11.563-43.972-15.305-8.837-34.562-4.137-43.863 11.972l-31.7 54.906zM779.563 793.675c8.919 15.449 3.295 35.394-11.563 43.972-15.305 8.837-34.562 4.137-43.863-11.972l-31.7-54.906c-8.919-15.449-3.295-35.394 11.563-43.972 15.305-8.837 34.562-4.137 43.863 11.972l31.7 54.906zM568.889 863.7c0 17.839-14.844 32.3-32 32.3-17.673 0-32-13.698-32-32.3v-63.4c0-17.839 14.844-32.3 32-32.3 17.673 0 32 13.698 32 32.3v63.4z" />
<glyph unicode="&#xe933;" glyph-name="redbag" d="M453.49 549.49c-23.163 23.163-37.49 55.163-37.49 90.51 0 6.897 0.546 13.668 1.596 20.269l-190.555 127.036c-1.972-6.139-3.041-12.678-3.041-19.464v-639.683c0-34.99 28.522-64.158 63.705-64.158h512.589c34.543 0 63.705 28.725 63.705 64.158v639.683c0 6.762-1.065 13.307-3.038 19.466l-190.558-127.038c0.525-3.301 0.924-6.644 1.192-10.024s0.404-6.797 0.404-10.246c0-70.692-57.308-128-128-128-35.346 0-67.346 14.327-90.51 37.49zM659.344 695.563l204.656 136.437h-640l204.656-136.437c20.686 42.864 64.562 72.437 115.344 72.437s94.658-29.573 115.344-72.437zM544 576c35.346 0 64 28.654 64 64s-28.654 64-64 64c-35.346 0-64-28.654-64-64s28.654-64 64-64z" />
<glyph unicode="&#xe934;" glyph-name="request2" d="M801.897 763.236v64.806c0 37.062-30.033 67.958-67.080 67.958h-539.738c-36.372 0-67.080-30.426-67.080-67.958v-36.527c0 37.532 30.707 67.958 67.080 67.958h539.738c37.047 0 67.080-30.896 67.080-67.958v-28.278c-1.513 34.231-29.835 60.99-64.552 60.99h-544.665c-35.66 0-64.616-28.598-64.616-63.875v-722.076c0-35.6 28.93-63.875 64.616-63.875h324.781c-73.978 48.344-122.906 132.203-122.906 227.558 0 149.759 120.686 271.163 269.559 271.163 50.37 0 97.514-13.898 137.848-38.089v325.32c0 0.967-0.021 1.929-0.064 2.885zM262.843 756.436h336.948v-33.895h-336.948v33.895zM262.843 666.213h336.948v-33.895h-336.948v33.895zM259.853 575.876h336.948v-33.895h-336.948v33.895zM464.621 235.135c-1.761-10.796-2.677-21.879-2.677-33.177 0-67.788 32.97-127.83 83.658-164.784-1.383 6.705-2.11 13.652-2.11 20.77 0 7.932 0.903 15.651 2.611 23.061-31.145 30.753-50.464 73.584-50.464 120.953 0 2.617 0.059 5.22 0.176 7.808-12.016 6.302-22.616 14.961-31.194 25.369v0zM588.417 390.595c23.38 9.503 48.93 14.735 75.696 14.735 59.524 0 113.039-25.877 150.036-67.058-12.702-1.83-24.642-6.036-35.36-12.156-30.073 28.121-70.378 45.319-114.675 45.319-15.34 0-30.201-2.062-44.325-5.927-8.653 10.322-19.311 18.887-31.371 25.087v0zM734.373 11.204c57.965 21.613 103.396 69.198 122.327 128.706-8.918-2.59-18.343-3.977-28.090-3.977-3.073 0-6.113 0.138-9.116 0.408-14.72-35.231-40.936-64.405-73.925-82.769-0.641-15.228-4.61-29.59-11.196-42.368v0zM542.478 232.202c37.218 0 67.39 30.351 67.39 67.791s-30.171 67.791-67.39 67.791c-37.218 0-67.39-30.351-67.39-67.791s30.171-67.791 67.39-67.791zM828.61 169.828c37.218 0 67.39 30.351 67.39 67.791s-30.171 67.791-67.39 67.791c-37.218 0-67.39-30.351-67.39-67.791s30.171-67.791 67.39-67.791zM644.576-9.846c37.218 0 67.39 30.351 67.39 67.791s-30.171 67.791-67.39 67.791c-37.218 0-67.39-30.351-67.39-67.791s30.171-67.791 67.39-67.791z" />
<glyph unicode="&#xe935;" glyph-name="right_border_bold" d="M364.349 353.611l-70.084 75.156c-36.383 39.015-96.844 40.831-135.62 4.671-39.046-36.411-40.925-96.876-4.8-135.615l131.068-140.553c12.72-13.64 28.383-22.734 45.033-27.247 34.592-14.019 75.395-6.95 103.281 20.937l453.339 453.339c37.504 37.504 37.095 97.879-0.395 135.369-37.752 37.752-98.097 37.667-135.369 0.395l-386.452-386.452z" />
<glyph unicode="&#xe936;" glyph-name="right_border" d="M350.535 346.404l-197.558 211.855-93.613-87.296 200.607-215.124-1.553-1.553 44.476-44.476 18.358-19.687 0.687 0.641 26.988-26.988 588.313 588.313-90.51 90.51-496.195-496.195z" />
<glyph unicode="&#xe937;" glyph-name="right" d="M410.724 380.47l271.288 271.288c24.932 24.932 65.231 25.057 90.399-0.111 24.994-24.994 25.057-65.453 0.111-90.399l-317.006-317.006c-24.189-24.189-62.841-25.027-88.108-2.073-4.441 2.848-8.609 6.299-12.387 10.351l-130.96 140.438c-24.101 25.846-22.864 66.171 3.167 90.446 25.851 24.106 66.174 22.879 90.446-3.15l93.051-99.785zM512 0c247.424 0 448 200.576 448 448s-200.576 448-448 448c-247.424 0-448-200.576-448-448s200.576-448 448-448z" />
<glyph unicode="&#xe938;" glyph-name="save" d="M448 768h-64v-192h64v192zM320 768h-128v-640h640v448.463l-191.014 191.537h-0.986v-256h-320v256zM128 767.842c0 35.434 28.684 64.158 64.111 64.158h514.309l189.58-192.172v-512.004c0-35.249-29.169-63.824-64.158-63.824h-639.683c-35.434 0-64.158 29.169-64.158 64.158v639.683zM512 320h128v-128h-128v128z" />
<glyph unicode="&#xe939;" glyph-name="search" d="M572.855 294.274c-45.13-29.814-99-47.136-156.855-47.136-159.058 0-288 130.926-288 292.431s128.942 292.431 288 292.431c159.058 0 288-130.926 288-292.431 0-79.419-31.18-151.444-81.788-204.142l232.078-232.078-45.255-45.255-236.18 236.18zM416 312.123c123.712 0 224 101.831 224 227.446s-100.288 227.446-224 227.446c-123.712 0-224-101.831-224-227.446s100.288-227.446 224-227.446z" />
<glyph unicode="&#xe93a;" glyph-name="self_border" d="M95.648 3.33l6.812 148.398c3.66 79.735 73.745 144.374 157.577 144.374h553.447c83.367 0 153.924-64.786 157.577-144.374l6.801-148.153h31.461l-7.076 161.931c-3.916 89.612-79.538 162.559-168.892 162.559h-593.188c-89.852 0-164.969-72.78-168.892-162.559l-7.274-166.464c10.258 2.288 20.832 3.742 31.648 4.288zM543.545 409.198c-134.492 0-243.52 108.974-243.52 243.401s109.028 243.401 243.52 243.401c134.492 0 243.52-108.974 243.52-243.401s-109.028-243.401-243.52-243.401zM543.545 441.079c116.819 0 211.52 94.701 211.52 211.52s-94.701 211.52-211.52 211.52c-116.819 0-211.52-94.701-211.52-211.52s94.701-211.52 211.52-211.52z" />
<glyph unicode="&#xe93b;" glyph-name="self" d="M1009.008 3.536l-7.073 157.175c-3.914 86.98-79.515 157.784-168.843 157.784h-593.016c-89.826 0-164.921-70.642-168.843-157.784l-7.233-160.712c11.601 2.32 23.588 3.536 35.847 3.536h909.161zM545.406 423.496c130.478 0 236.252 105.774 236.252 236.252s-105.774 236.252-236.252 236.252c-130.478 0-236.252-105.774-236.252-236.252s105.774-236.252 236.252-236.252z" />
<glyph unicode="&#xe93c;" glyph-name="sendto" d="M640.147 832h-448.442c-34.543 0-63.705-28.725-63.705-64.158v-639.683c0-34.99 28.522-64.158 63.705-64.158h384.295v64h-384v640h384v64h64.147zM931.238 402.567c24.823 25.084 24.488 66.092 0 90.837l-182.292 184.211c-24.823 25.084-44.946 17.383-44.946-18.761v-421.736c0-35.445 20.458-43.506 44.946-18.761l182.292 184.211zM320 544h384v-192h-384v192z" />
<glyph unicode="&#xe93d;" glyph-name="setting" d="M298.829 698.553c41.148 36.274 91.692 62.136 147.513 73.469v27.679c0 17.839 13.698 32.3 32.3 32.3h63.4c17.839 0 32.3-13.698 32.3-32.3v-27.676c55.824-11.33 106.371-37.192 147.521-73.466l23.025 18.645c13.863 11.226 33.722 9.681 45.429-4.775l39.899-49.271c11.226-13.863 9.681-33.722-4.775-45.429l-26.299-21.296c20.005-41.786 31.207-88.589 31.207-138.009 0-5.936-0.162-11.834-0.481-17.69l37.735-8.712c17.381-4.013 28.391-20.613 24.206-38.738l-14.262-61.775c-4.013-17.381-20.613-28.391-38.738-24.206l-41.397 9.557c-22.728-46.001-56.188-85.752-97.109-115.983l20.301-41.623c7.82-16.033 1.847-35.036-14.872-43.19l-56.984-27.793c-16.033-7.82-35.036-1.847-43.19 14.872l-21.382 43.84c-23.7-5.597-48.417-8.558-73.827-8.558-25.414 0-50.136 2.963-73.84 8.561l-21.384-43.843c-7.82-16.033-26.471-23.026-43.19-14.872l-56.984 27.793c-16.033 7.82-23.026 26.471-14.872 43.19l20.305 41.631c-40.917 30.231-74.374 69.981-97.1 115.979l-41.41-9.56c-17.381-4.013-34.553 6.081-38.738 24.206l-14.262 61.775c-4.013 17.381 6.081 34.553 24.206 38.738l37.749 8.715c-0.319 5.855-0.481 11.752-0.481 17.687 0 49.416 11.201 96.217 31.203 138l-26.309 21.305c-13.863 11.226-16.481 30.972-4.775 45.429l39.899 49.271c11.226 13.863 30.972 16.481 45.429 4.775l23.032-18.651zM510.349 266.424c106.039 0 192 85.961 192 192s-85.961 192-192 192c-106.039 0-192-85.961-192-192s85.961-192 192-192z" />
<glyph unicode="&#xe93e;" glyph-name="share" d="M576 705.116c-146.921-0.119-287.087-85.019-350.706-227.909-18.561-41.688-29.093-84.915-32.264-127.948 85.665 123.359 236.276 185.052 382.969 158.646v-105.689c0-35.437 23.522-47.381 52.537-26.759l250.981 178.372c29.175 20.735 29.015 54.055 0 74.676l-250.981 178.372c-29.175 20.735-52.537 8.641-52.537-26.759v-75.001zM192 384c-34.919-0.086-64-28.701-64-63.987v-192.025c0-35.59 28.725-63.988 64.158-63.988h639.683c34.99 0 64.158 28.648 64.158 63.988v192.025c0 35.537-28.639 63.903-64 63.987v-256h-640v256z" />
<glyph unicode="&#xe93f;" glyph-name="shopping_car" d="M708.841 273.92h-321.64c-5.76 0-11.167 1.551-15.848 4.23-9.204 3.176-16.863 10.481-20.080 20.379l-117.274 360.934h-92.276c-17.694 0-32.037 14.844-32.037 32 0 17.673 14.062 32 32.037 32h115.125c9.132 0 17.372-3.954 23.208-10.14 3.518-3.478 6.275-7.816 7.899-12.815l117.812-362.589h290.906l169.942 261.688c9.704 14.943 30.020 18.973 44.409 9.629 14.822-9.625 19.196-29.196 9.266-44.486l-171.545-264.157c-2.424-14.723-14.765-26.038-30.49-26.648-3.116-0.459-6.292-0.474-9.415-0.026zM687.926 126.635c35.346 0 64 28.654 64 64s-28.654 64-64 64c-35.346 0-64-28.654-64-64s28.654-64 64-64zM408.387 126.635c35.346 0 64 28.654 64 64s-28.654 64-64 64c-35.346 0-64-28.654-64-64s28.654-64 64-64zM424.943 565.76h254.191c34.613 0 56.498-28.33 48.739-63.933l-13.978-64.134c-7.696-35.309-36.171-63.933-62.787-63.933h-198.139c-26.981 0-55.027 28.33-62.787 63.933l-13.978 64.134c-7.696 35.309 14.593 63.933 48.739 63.933zM397.039 722.612h327.637c44.614 0 73.020-18.887 63.266-42.622l-17.57-42.756c-9.673-23.54-46.377-42.622-80.925-42.622h-257.18c-35.020 0-71.171 18.887-80.925 42.622l-17.57 42.756c-9.673 23.54 19.254 42.622 63.266 42.622z" />
<glyph unicode="&#xe940;" glyph-name="signature" d="M557.77 678.371c63.78 71.351 147.827 130.442 256.826 148.727 334.387 56.095 43.12-384.209-378.889-554.4 0 0-104.846-72.054-144.14-118.491s-39.295-7.060-39.295-7.060c0 0 76.223 108.162 86.088 125.551 6.504 11.464 18.097 27.242 27.503 39.474 2.524-0.945 6.197-1.479 11.274-1.479 44.323 0 419.581 358.314 373.002 358.314s-354.651-317.637-354.651-317.637c0 0-5.324-3.456-11.772-8.352 9.599 36.078 42.709 146.789 112.18 253.858h-418.391v-498.462h465.033v102.296l77.506 56.036v-158.579c0-45.746-35.113-82.83-77.275-82.83h-465.494c-42.678 0-77.275 37.637-77.275 82.83v498.955c0 45.746 35.113 82.83 77.275 82.83h465.494c5.132 0 10.148-0.544 15.001-1.581z" />
<glyph unicode="&#xe941;" glyph-name="stamp" d="M643.729 578.726c42.219 9.211 78.563 39.653 93.662 83.503 23.176 67.307-12.513 139.684-79.354 162.699-67.307 23.176-139.684-12.513-162.699-79.354-15.174-44.067-5.115-90.308 22.4-123.445-1.433-9.47-3.741-18.945-6.97-28.324-11.727-34.057-33.802-61.611-61.511-80.352-16.71 5.754-34.921-3.128-40.679-19.849l-10.414-30.246 242.053-83.345 10.418 30.257c5.754 16.71-3.128 34.921-19.849 40.679-10.286 31.824-10.718 67.127 1.009 101.184 3.227 9.373 7.239 18.254 11.935 26.593zM311.397 404.359c11.508 33.421 48.126 51.117 80.791 39.869l243.169-83.73c33.112-11.401 50.707-47.504 39.119-81.157l-10.321-29.973c-5.808-16.867-24.306-25.792-40.228-20.309l-303.655 104.557c-16.41 5.65-25.253 23.183-19.197 40.771l10.321 29.973zM307.898 312.668l302.566-104.182-20.836-60.513-302.566 104.182 20.836 60.513zM192 105.559h640v-64h-640v64z" />
<glyph unicode="&#xe942;" glyph-name="storage" d="M560.504 495.642c-22.001 22.987-35.517 54.161-35.517 88.492 0 70.692 57.308 128 128 128s128-57.308 128-128c0-70.692-57.308-128-128-128-15.785 0-30.903 2.857-44.864 8.083 22.001-22.987 35.517-54.161 35.517-88.492 0-70.692-57.308-128-128-128s-128 57.308-128 128c0 39.313 17.723 74.486 45.614 97.966-18.994-11.158-41.121-17.557-64.742-17.557-70.692 0-128 57.308-128 128s57.308 128 128 128c70.692 0 128-57.308 128-128 0-39.313-17.723-74.486-45.614-97.966 18.994 11.158 41.121 17.557 64.742 17.557 15.785 0 30.903-2.857 44.864-8.083zM765.952 452.899c-22.88-21.403-53.622-34.505-87.424-34.505-3.661 0-7.285 0.154-10.868 0.455 3.647-7.932 6.506-16.302 8.478-25.007 76.008-51.029 209.548-138.646 206.752-144.44-2.203-4.565-127.016 80.292-204.81 133.774 0.803-5.796 1.218-11.715 1.218-17.732 0-26.627-8.13-51.355-22.044-71.837l22.286-37.012c0 0 9.631 21.769 23.676 17.567s64.676-79.432 64.676-79.432c0 0 5.628 27.915 28.845 27.62s57.965-47.066 57.965-47.066c0 0 10.008 36.053 23.044 40.733s82.252-16.46 82.252-16.46c0 0-36.131 45.541-38.946 70.485s23.929 34.175 23.929 34.175c0 0-51.522 18.433-64.351 37.946s21.627 37.901 21.627 37.901c0 0-73.446 10.119-89.616 26.137s10.51 29.254 10.51 29.254l-57.201 17.446zM264.433 454.846c23.076-22.553 54.645-36.453 89.46-36.453 3.042 0 6.060 0.106 9.049 0.315-2.86-6.24-5.232-12.75-7.069-19.48-74.183-49.972-217.661-143.824-214.764-149.827 2.275-4.714 135.326 85.948 212.298 138.925-1.34-7.425-2.040-15.072-2.040-22.883 0-24.348 6.798-47.108 18.6-66.486l-25.509-42.364c0 0-9.631 21.769-23.676 17.567s-64.676-79.432-64.676-79.432c0 0-5.628 27.915-28.845 27.62s-57.965-47.066-57.965-47.066c0 0-10.008 36.053-23.044 40.733s-82.252-16.46-82.252-16.46c0 0 36.131 45.541 38.946 70.485s-23.929 34.175-23.929 34.175c0 0 51.522 18.433 64.351 37.946s-21.627 37.901-21.627 37.901c0 0 73.446 10.119 89.616 26.137s-10.51 29.254-10.51 29.254l63.586 19.394z" />
<glyph unicode="&#xe943;" glyph-name="triangle_down" d="M466.691 208.491c25.009-24.748 65.965-24.344 90.565 0l390.768 386.698c25.009 24.748 16.472 44.811-18.626 44.811h-834.85c-35.296 0-43.227-20.467-18.626-44.811l390.768-386.698z" />
<glyph unicode="&#xe944;" glyph-name="triangle_left" d="M338.798 402.578l357.18-357.18c25.073-25.073 45.398-16.602 45.398 19.040v767.124c0 35.588-20.517 43.921-45.398 19.040l-357.18-357.18c-25.086-25.086-25.008-65.836 0-90.844z" />
<glyph unicode="&#xe945;" glyph-name="triangle_right" d="M751.509 402.691c24.748 25.009 24.344 65.965 0 90.565l-386.698 390.768c-24.748 25.009-44.811 16.472-44.811-18.626v-834.85c0-35.296 20.467-43.227 44.811-18.626l386.698 390.768z" />
<glyph unicode="&#xe946;" glyph-name="triangle_up" d="M466.691 623.509c25.009 24.748 65.965 24.344 90.565 0l390.768-386.698c25.009-24.748 16.472-44.811-18.626-44.811h-834.85c-35.296 0-43.227 20.467-18.626 44.811l390.768 386.698z" />
<glyph unicode="&#xe947;" glyph-name="turnback" d="M475.565 626.442c185.853-0.151 363.161-107.548 443.637-288.301 23.479-52.734 36.803-107.416 40.813-161.852-108.365 156.047-298.885 234.088-484.45 200.684v-151.051c0-34.554-23.132-47.286-51.667-27.006l-347.070 246.662c-28.712 20.406-28.535 53.16 0 73.439l347.070 246.662c28.712 20.406 51.667 8.189 51.667-27.006v-112.232z" />
<glyph unicode="&#xe948;" glyph-name="turnto" d="M539.795 626.442c-185.853-0.151-363.161-107.548-443.637-288.301-23.479-52.734-36.803-107.416-40.813-161.852 108.365 156.047 298.885 234.088 484.45 200.684v-151.051c0-34.554 23.132-47.286 51.667-27.006l347.070 246.662c28.712 20.406 28.535 53.16 0 73.439l-347.070 246.662c-28.712 20.406-51.667 8.189-51.667-27.006v-112.232z" />
<glyph unicode="&#xe949;" glyph-name="request" d="M801.897 763.236v64.806c0 37.062-30.033 67.958-67.080 67.958h-539.738c-36.372 0-67.080-30.426-67.080-67.958v-36.527c0 37.532 30.707 67.958 67.080 67.958h539.738c37.047 0 67.080-30.896 67.080-67.958v-28.278c-1.513 34.231-29.835 60.99-64.552 60.99h-544.665c-35.66 0-64.616-28.598-64.616-63.875v-722.076c0-35.6 28.93-63.875 64.616-63.875h324.781c-73.978 48.344-122.906 132.203-122.906 227.558 0 149.759 120.686 271.163 269.559 271.163 50.37 0 97.514-13.898 137.848-38.089v325.32c0 0.967-0.021 1.929-0.064 2.885zM262.843 756.436h336.948v-33.895h-336.948v33.895zM262.843 666.213h336.948v-33.895h-336.948v33.895zM259.853 575.876h336.948v-33.895h-336.948v33.895zM464.621 235.135c-1.761-10.796-2.677-21.879-2.677-33.177 0-67.788 32.97-127.83 83.658-164.784-1.383 6.705-2.11 13.652-2.11 20.77 0 7.932 0.903 15.651 2.611 23.061-31.145 30.753-50.464 73.584-50.464 120.953 0 2.617 0.059 5.22 0.176 7.808-12.016 6.302-22.616 14.961-31.194 25.369v0zM588.417 390.595c23.38 9.503 48.93 14.735 75.696 14.735 59.524 0 113.039-25.877 150.036-67.058-12.702-1.83-24.642-6.036-35.36-12.156-30.073 28.121-70.378 45.319-114.675 45.319-15.34 0-30.201-2.062-44.325-5.927-8.653 10.322-19.311 18.887-31.371 25.087v0zM734.373 11.204c57.965 21.613 103.396 69.198 122.327 128.706-8.918-2.59-18.343-3.977-28.090-3.977-3.073 0-6.113 0.138-9.116 0.408-14.72-35.231-40.936-64.405-73.925-82.769-0.641-15.228-4.61-29.59-11.196-42.368v0zM542.478 232.202c37.218 0 67.39 30.351 67.39 67.791s-30.171 67.791-67.39 67.791c-37.218 0-67.39-30.351-67.39-67.791s30.171-67.791 67.39-67.791zM828.61 169.828c37.218 0 67.39 30.351 67.39 67.791s-30.171 67.791-67.39 67.791c-37.218 0-67.39-30.351-67.39-67.791s30.171-67.791 67.39-67.791zM644.576-9.846c37.218 0 67.39 30.351 67.39 67.791s-30.171 67.791-67.39 67.791c-37.218 0-67.39-30.351-67.39-67.791s30.171-67.791 67.39-67.791z" />
<glyph unicode="&#xe94a;" glyph-name="vip" d="M512.078 87.774l141.502 461.221h-283.005l141.502-461.221zM691.337 548.68h192.872l-324.305-423.717 131.434 423.717zM327.936 549.17l135.978-412.209-322.060 412.209h186.082zM512.078 811.785l121.288-222.361h-242.575l121.288 222.361zM790.565 806.326l113.408-216.902h-201.358l87.949 216.902zM667.574 610.068l91.283 221.932h-212.036l120.753-221.932zM347.809 595.113l132.126 236.887h-190.848l58.723-236.887zM249.239 831.052l60.693-241.627h-185.479l124.785 241.627z" />
<glyph unicode="&#xe94b;" glyph-name="home" d="M918.184 385.768l-406.184 315.289-406.184-315.291v128.549l406.184 315.289 406.184-315.291zM816.638 397.227v-304.638h-203.092v203.092h-203.092v-203.092h-203.092v304.638l304.638 228.48z" />
<glyph unicode="&#xe94c;" glyph-name="image" d="M863.908 749.714c0.031-0.028 0.064-0.061 0.092-0.092v-603.247c-0.028-0.031-0.061-0.064-0.092-0.092h-703.82c-0.031 0.028-0.064 0.061-0.090 0.092v603.249c0.028 0.031 0.061 0.064 0.090 0.090h703.82zM864 800h-704c-27.658 0-50.287-22.629-50.287-50.287v-603.429c0-27.658 22.629-50.287 50.287-50.287h704c27.658 0 50.287 22.629 50.287 50.287v603.429c0 27.658-22.629 50.287-50.287 50.287v0zM763.429 624c0-41.659-33.77-75.429-75.429-75.429s-75.429 33.77-75.429 75.429 33.77 75.429 75.429 75.429 75.429-33.77 75.429-75.429zM813.714 196.571h-603.429v100.571l176 301.714 201.142-251.429h50.287l176 150.858z" />
<glyph unicode="&#xe94d;" glyph-name="camera" d="M352 374.155c0-88.365 71.635-160 160-160s160 71.635 160 160-71.635 160-160 160-160-71.635-160-160zM856.615 644.924h-172.307c-12.307 49.231-24.615 98.462-73.845 98.462h-196.924c-49.231 0-61.538-49.231-73.845-98.462h-172.307c-27.076 0-49.231-22.155-49.231-49.231v-443.076c0-27.076 22.155-49.231 49.231-49.231h689.231c27.076 0 49.231 22.155 49.231 49.231v443.076c0 27.076-22.155 49.231-49.231 49.231zM512 155.693c-120.655 0-218.462 97.805-218.462 218.462 0 120.655 97.807 218.462 218.462 218.462s218.462-97.807 218.462-218.462c0-120.655-97.805-218.462-218.462-218.462zM856.615 497.231h-98.462v49.231h98.462v-49.231z" />
<glyph unicode="&#xe94e;" glyph-name="music" d="M876 864h52v-598c0-71.797-81.486-130-182-130s-182 58.203-182 130c0 71.799 81.486 130 182 130 50.93 0 96.965-14.95 130-39.033v299.033l-416-92.445v-401.555c0-71.797-81.484-130-182-130s-182 58.203-182 130c0 71.799 81.484 130 182 130 50.93 0 96.965-14.95 130-39.033v507.033l468 104z" />
<glyph unicode="&#xe94f;" glyph-name="film" d="M85.356 767.982v-639.966h853.288v639.966h-853.288zM245.348 181.348h-106.66v106.66h106.66v-106.66zM245.348 394.67h-106.66v106.66h106.66v-106.66zM245.348 607.992h-106.66v106.66h106.66v-106.66zM725.322 181.348h-426.644v533.305h426.644v-533.305zM885.314 181.348h-106.66v106.66h106.66v-106.66zM885.314 394.67h-106.66v106.66h106.66v-106.66zM885.314 607.992h-106.66v106.66h106.66v-106.66zM405.34 607.992v-319.982l213.322 159.992z" />
<glyph unicode="&#xe950;" glyph-name="clubs" d="M752.478 552.324c-51.653 0-98.076-21.522-131.12-56.608-13.996-14.861-38.292-32.473-64.575-47.958 12.346 47.134 51.342 106.488 78.424 132.524 34.685 33.398 55.986 80.352 55.986 132.562 0.006 100.532-80.042 182.084-179.19 183.155-99.155-1.070-179.196-82.622-179.196-183.154 0-52.213 21.301-99.164 55.988-132.562 27.084-26.036 66.080-85.39 78.424-132.524-26.286 15.488-50.58 33.098-64.575 47.958-33.047 35.086-79.468 56.608-131.118 56.608-100.088 0-181.195-81.956-181.195-183.162 0-101.184 81.106-183.17 181.195-183.17 51.662 0 98.072 22.186 131.118 57.27 14.704 15.638 40.638 35.12 68.506 51.303-2.626-129.23-64.34-224.147-127.154-261.542v-33.024h336.012v33.022c-62.818 37.394-124.53 132.314-127.155 261.542 27.87-16.182 53.802-35.672 68.506-51.303 33.046-35.082 79.457-57.27 131.12-57.27 100.088 0 181.194 81.988 181.194 183.17-0.002 101.206-81.106 183.162-181.195 183.162z" />
<glyph unicode="&#xe951;" glyph-name="bullhorn" d="M1024 530.744c0 200.926-58.792 363.938-131.482 365.226 0.292 0.006 0.578 0.030 0.872 0.030h-82.942c0 0-194.8-146.336-475.23-203.754-8.56-45.292-14.030-99.274-14.030-161.502s5.466-116.208 14.030-161.5c280.428-57.418 475.23-203.756 475.23-203.756h82.942c-0.292 0-0.578 0.024-0.872 0.032 72.696 1.288 131.482 164.298 131.482 365.224zM864.824 220.748c-9.382 0-19.532 9.742-24.746 15.548-12.63 14.064-24.792 35.96-35.188 63.328-23.256 61.232-36.066 143.31-36.066 231.124 0 87.81 12.81 169.89 36.066 231.122 10.394 27.368 22.562 49.266 35.188 63.328 5.214 5.812 15.364 15.552 24.746 15.552 9.38 0 19.536-9.744 24.744-15.552 12.634-14.064 24.796-35.958 35.188-63.328 23.258-61.23 36.068-143.312 36.068-231.122 0-87.804-12.81-169.888-36.068-231.124-10.39-27.368-22.562-49.264-35.188-63.328-5.208-5.806-15.36-15.548-24.744-15.548zM251.812 530.744c0 51.95 3.81 102.43 11.052 149.094-47.372-6.554-88.942-10.324-140.34-10.324-67.058 0-67.058 0-67.058 0l-55.466-94.686v-88.17l55.46-94.686c0 0 0 0 67.060 0 51.398 0 92.968-3.774 140.34-10.324-7.236 46.664-11.048 97.146-11.048 149.096zM368.15 317.828l-127.998 24.51 81.842-321.544c4.236-16.634 20.744-25.038 36.686-18.654l118.556 47.452c15.944 6.376 22.328 23.964 14.196 39.084l-123.282 229.152zM864.824 411.27c-3.618 0-7.528 3.754-9.538 5.992-4.87 5.42-9.556 13.86-13.562 24.408-8.962 23.6-13.9 55.234-13.9 89.078s4.938 65.478 13.9 89.078c4.006 10.548 8.696 18.988 13.562 24.408 2.010 2.24 5.92 5.994 9.538 5.994 3.616 0 7.53-3.756 9.538-5.994 4.87-5.42 9.556-13.858 13.56-24.408 8.964-23.598 13.902-55.234 13.902-89.078 0-33.842-4.938-65.478-13.902-89.078-4.004-10.548-8.696-18.988-13.56-24.408-2.008-2.238-5.92-5.992-9.538-5.992z" />
<glyph unicode="&#xe952;" glyph-name="book" d="M824 760v-676h-546c-43.084 0-78 34.922-78 78s34.916 78 78 78h494v624h-520c-57.198 0-104-46.8-104-104v-624c0-57.2 46.802-104 104-104h624v728h-52zM278.045 188v0c-0.015-0.002-0.032 0-0.045 0-14.358 0-26-11.641-26-26s11.642-26 26-26c0.015 0 0.032 0.002 0.045 0.002v-0.002h493.911v52h-493.911z" />
<glyph unicode="&#xe953;" glyph-name="books" horiz-adv-x="1152" d="M311.531 736.513h-144.255c-13.223 0-24.043-10.818-24.043-24.043v-528.938c0-13.223 10.818-24.043 24.043-24.043h144.255c13.223 0 24.043 10.818 24.043 24.043v528.938c0 13.223-10.818 24.043-24.043 24.043zM287.487 592.255h-96.17v48.085h96.17v-48.085zM551.957 736.513h-144.255c-13.223 0-24.043-10.818-24.043-24.043v-528.938c0-13.223 10.818-24.043 24.043-24.043h144.255c13.223 0 24.043 10.818 24.043 24.043v528.938c0 13.223-10.818 24.043-24.043 24.043zM527.915 592.255h-96.17v48.085h96.17v-48.085zM718.069 699.336l-128.827-64.911c-11.807-5.95-16.601-20.481-10.653-32.29l216.368-429.423c5.95-11.809 20.481-16.602 32.29-10.653l128.827 64.909c11.807 5.951 16.601 20.481 10.653 32.288l-216.368 429.425c-5.951 11.809-20.481 16.604-32.29 10.655zM840.469 183.531c0-13.278-10.764-24.043-24.043-24.043s-24.043 10.764-24.043 24.043c0 13.278 10.764 24.043 24.043 24.043s24.043-10.764 24.043-24.043z" />
<glyph unicode="&#xe954;" glyph-name="library" horiz-adv-x="1088" d="M933.979 84.021v51.997h-51.997v311.982h51.997v51.997h-155.991v-51.997h51.997v-311.982h-155.991v311.982h51.997v51.997h-155.991v-51.997h51.997v-311.982h-155.991v311.982h51.997v51.997h-155.991v-51.997h51.997v-311.982h-155.991v311.982h51.997v51.997h-155.991v-51.997h51.997v-311.982h-51.997v-51.997h-51.997v-51.997h883.949v51.997h-51.997zM518.001 863.976h51.997l415.976-259.985v-51.997h-883.949v51.997l415.976 259.985z" />
<glyph unicode="&#xe955;" glyph-name="file_text2" d="M841.717 677.875c-18.048 24.613-43.205 53.382-70.831 81.010s-56.398 52.784-81.010 70.831c-41.905 30.728-62.231 34.283-73.875 34.283h-403c-35.841 0-65-29.159-65-65v-702c0-35.841 29.159-65 65-65h598c35.841 0 65 29.159 65 65v507c0 11.644-3.553 31.973-34.283 73.875zM734.116 722.116c24.943-24.943 44.525-47.448 58.972-66.116h-125.088v125.080c18.674-14.447 41.177-34.027 66.116-58.964zM824 97c0-7.046-5.954-13-13-13h-598c-7.046 0-13 5.954-13 13v702c0 7.046 5.954 13 13 13 0 0 402.965 0.002 403 0v-182c0-14.359 11.641-26 26-26h182v-507zM694 188h-364c-14.359 0-26 11.641-26 26s11.641 26 26 26h364c14.359 0 26-11.641 26-26s-11.641-26-26-26zM694 292h-364c-14.359 0-26 11.641-26 26s11.641 26 26 26h364c14.359 0 26-11.641 26-26s-11.641-26-26-26zM694 396h-364c-14.359 0-26 11.641-26 26s11.641 26 26 26h364c14.359 0 26-11.641 26-26s-11.641-26-26-26z" />
<glyph unicode="&#xe956;" glyph-name="file_music" d="M841.717 677.875c-18.046 24.613-43.205 53.382-70.831 81.010s-56.398 52.784-81.010 70.831c-41.905 30.728-62.231 34.283-73.875 34.283h-403c-35.841 0-65-29.159-65-65v-702c0-35.841 29.157-65 65-65h598c35.841 0 65 29.159 65 65v507c0 11.644-3.553 31.973-34.283 73.875v0zM734.116 722.116c24.943-24.943 44.525-47.448 58.972-66.116h-125.088v125.080c18.674-14.447 41.177-34.027 66.116-58.964v0zM824 97c0-7.046-5.954-13-13-13h-598c-7.046 0-13 5.954-13 13v702c0 7.046 5.954 13 13 13 0 0 402.965 0.002 403 0v-182c0-14.359 11.639-26 26-26h182v-507zM710.484 546.107c-6.025 4.94-13.945 6.918-21.582 5.389l-260-52c-12.153-2.433-20.902-13.102-20.902-25.497v-192.461c-15.301 6.641-33.052 10.461-52 10.461-57.438 0-104-34.922-104-78s46.562-78 104-78 104 34.922 104 78v186.686l208 41.602v-108.747c-15.301 6.641-33.052 10.461-52 10.461-57.438 0-104-34.922-104-78s46.562-78 104-78 104 34.922 104 78v259.998c0 7.789-3.491 15.167-9.516 20.107z" />
<glyph unicode="&#xe957;" glyph-name="file_play" d="M408 552l260-182-260-182v364zM841.717 677.875c-18.048 24.613-43.205 53.382-70.831 81.010s-56.398 52.784-81.010 70.831c-41.905 30.728-62.231 34.283-73.875 34.283h-403c-35.841 0-65-29.159-65-65v-702c0-35.841 29.159-65 65-65h598c35.841 0 65 29.159 65 65v507c0 11.644-3.553 31.973-34.283 73.875zM734.116 722.116c24.943-24.943 44.525-47.448 58.972-66.116h-125.088v125.080c18.674-14.447 41.177-34.027 66.116-58.964zM824 97c0-7.046-5.954-13-13-13h-598c-7.046 0-13 5.954-13 13v702c0 7.046 5.954 13 13 13 0 0 402.965 0.002 403 0v-182c0-14.359 11.641-26 26-26h182v-507z" />
<glyph unicode="&#xe958;" glyph-name="file_video" d="M841.717 677.875c-18.044 24.613-43.205 53.382-70.831 81.010s-56.398 52.784-81.010 70.831c-41.905 30.728-62.233 34.283-73.875 34.283h-403c-35.841 0-65-29.159-65-65v-702c0-35.841 29.153-65 65-65h598c35.841 0 65 29.159 65 65v507c0 11.644-3.553 31.973-34.283 73.875v0 0zM734.116 722.116c24.943-24.943 44.525-47.448 58.972-66.116h-125.088v125.080c18.672-14.447 41.177-34.027 66.116-58.964v0 0zM824 97c0-7.046-5.954-13-13-13h-598c-7.046 0-13 5.954-13 13v702c0 7.046 5.954 13 13 13 0 0 402.965 0.002 403 0v-182c0-14.359 11.635-26 26-26h182v-507zM304 448h260v-260h-260v260zM564 344l156 104v-260l-156 104z" />
<glyph unicode="&#xe959;" glyph-name="file_zip" d="M841.717 677.875c-18.044 24.613-43.205 53.382-70.831 81.010s-56.398 52.784-81.010 70.831c-41.905 30.728-62.231 34.283-73.875 34.283h-403c-35.841 0-65-29.159-65-65v-702c0-35.841 29.155-65 65-65h598c35.841 0 65 29.159 65 65v507c0 11.644-3.553 31.973-34.283 73.875v0 0zM734.116 722.116c24.943-24.943 44.525-47.448 58.972-66.116h-125.088v125.080c18.672-14.447 41.177-34.027 66.116-58.964v0 0zM824 97c0-7.046-5.954-13-13-13h-598c-7.046 0-13 5.954-13 13v702c0 7.046 5.954 13 13 13 0 0 402.965 0.002 403 0v-182c0-14.359 11.637-26 26-26h182v-507zM304 812h104v-52h-104v52zM408 760h104v-52h-104v52zM304 708h104v-52h-104v52zM408 656h104v-52h-104v52zM304 604h104v-52h-104v52zM408 552h104v-52h-104v52zM304 500h104v-52h-104v52zM408 448h104v-52h-104v52zM304 175c0-21.45 17.55-39 39-39h130c21.45 0 39 17.55 39 39v130c0 21.45-17.55 39-39 39h-65v52h-104v-221zM460 240v-52h-104v52h104z" />
<glyph unicode="&#xe95a;" glyph-name="price_tags" horiz-adv-x="1280" d="M1156.88 895.031h-335.274c-23.050 0-55.245-13.336-71.544-29.635l-415.7-415.7c-16.3-16.3-16.3-42.97 0-59.268l359.824-359.824c16.3-16.3 42.97-16.3 59.268 0l415.702 415.702c16.298 16.298 29.634 48.492 29.634 71.542v335.274c0 23.050-18.86 41.91-41.91 41.91zM947.334 559.758c-46.292 0-83.818 37.526-83.818 83.818s37.526 83.818 83.818 83.818 83.818-37.526 83.818-83.818-37.526-83.818-83.818-83.818zM192.969 420.060l474.97 474.97h-69.848c-23.050 0-55.245-13.336-71.544-29.635l-415.7-415.7c-16.3-16.3-16.3-42.97 0-59.268l359.824-359.824c16.3-16.3 42.97-16.3 59.268 0l26.244 26.244-363.212 363.212z" />
<glyph unicode="&#xe95b;" glyph-name="qrcode" d="M356 812h-208v-208h208v208zM408 864v0-312h-312v312h312zM200 760h104v-104h-104zM876 812h-208v-208h208v208zM928 864v0-312h-312v312h312zM720 760h104v-104h-104zM356 292h-208v-208h208v208zM408 344v0-312h-312v312h312zM200 240h104v-104h-104zM460 864h52v-52h-52zM512 812h52v-52h-52zM460 760h52v-52h-52zM512 708h52v-52h-52zM460 656h52v-52h-52zM512 604h52v-52h-52zM460 552h52v-52h-52zM460 448h52v-52h-52zM512 396h52v-52h-52zM460 344h52v-52h-52zM512 292h52v-52h-52zM460 240h52v-52h-52zM512 188h52v-52h-52zM460 136h52v-52h-52zM512 84h52v-52h-52zM876 448h52v-52h-52zM148 448h52v-52h-52zM200 500h52v-52h-52zM96 500h52v-52h-52zM304 500h52v-52h-52zM356 448h52v-52h-52zM408 500h52v-52h-52zM564 448h52v-52h-52zM616 500h52v-52h-52zM668 448h52v-52h-52zM720 500h52v-52h-52zM772 448h52v-52h-52zM824 500h52v-52h-52zM876 344h52v-52h-52zM564 344h52v-52h-52zM616 396h52v-52h-52zM668 344h52v-52h-52zM772 344h52v-52h-52zM824 396h52v-52h-52zM876 240h52v-52h-52zM564 240h52v-52h-52zM616 292h52v-52h-52zM720 292h52v-52h-52zM772 240h52v-52h-52zM824 292h52v-52h-52zM876 136h52v-52h-52zM616 188h52v-52h-52zM668 136h52v-52h-52zM720 188h52v-52h-52zM772 136h52v-52h-52zM616 84h52v-52h-52zM720 84h52v-52h-52zM824 84h52v-52h-52z" />
<glyph unicode="&#xe95c;" glyph-name="credit_card" d="M823.972 735.975h-623.944c-39.597 0-71.994-32.397-71.994-71.994v-431.961c0-39.597 32.397-71.994 71.994-71.994h623.944c39.597 0 71.994 32.397 71.994 71.994v431.961c0 39.597-32.397 71.994-71.994 71.994zM200.028 687.978h623.944c13.008 0 23.998-10.989 23.998-23.998v-71.994h-671.939v71.994c0 13.008 10.989 23.998 23.998 23.998zM823.972 208.022h-623.944c-13.008 0-23.998 10.989-23.998 23.998v215.981h671.939v-215.981c0-13.008-10.989-23.998-23.998-23.998zM224.025 352.008h47.995v-95.992h-47.995zM320.017 352.008h47.995v-95.992h-47.995zM416.008 352.008h47.995v-95.992h-47.995z" />
<glyph unicode="&#xe95d;" glyph-name="display" d="M109.714 800v-502.858h804.571v502.858h-804.571zM864 347.429h-704v402.286h704v-402.286zM637.714 246.858h-251.429l-25.142-100.571-50.286-50.286h402.287l-50.286 50.286z" />
<glyph unicode="&#xe95e;" glyph-name="print" d="M316.873 307.183v-256h384v256h-384zM380.873 264.468h256v-32h-256v32zM380.761 199.053h256v-32h-256v32zM717.965 275.038l-19.551 61.892h-390.696l-19.551-61.892h-99.135c-35.434 0-64.158 28.862-64.158 63.41v257.18c0 35.020 29.169 63.41 64.158 63.41h639.683c35.434 0 64.158-28.862 64.158-63.41v-257.18c0-35.020-29.169-63.41-64.158-63.41h-110.75zM381.641 133.166h256v-32h-256v32zM636.873 691.183h64v128h-384v-128h64v63.273h256v-63.273zM795.243 531.241c17.673 0 32 14.327 32 32s-14.327 32-32 32c-17.673 0-32-14.327-32-32s14.327-32 32-32z" />
<glyph unicode="&#xe95f;" glyph-name="location" d="M470.88 23.838l-158.656 251.028c-78.921 58.277-130.106 151.957-130.106 257.592 0 176.731 143.269 320 320 320s320-143.269 320-320c0-105.635-51.185-199.315-130.106-257.592l-157.122-248.6-2.168-0.14c-3.208-14.285-15.969-24.958-31.223-24.958-14.428 0-26.625 9.548-30.619 22.67zM502.117 404.458c70.692 0 128 57.308 128 128s-57.308 128-128 128c-70.692 0-128-57.308-128-128s57.308-128 128-128z" />
<glyph unicode="&#xe960;" glyph-name="location2" d="M512 960c-176.732 0-320-143.268-320-320 0-320 320-704 320-704s320 384 320 704c0 176.732-143.27 320-320 320zM512 448c-106.040 0-192 85.96-192 192s85.96 192 192 192 192-85.96 192-192-85.96-192-192-192z" />
<glyph unicode="&#xe961;" glyph-name="phone2" d="M665.6 345.599c-51.199-51.199-51.199-102.401-102.401-102.401s-102.401 51.199-153.6 102.401-102.401 102.401-102.401 153.6 51.199 51.199 102.401 102.401-102.401 204.799-153.6 204.799-153.6-153.6-153.6-153.6c0-102.401 105.199-310.001 204.799-409.601s307.2-204.799 409.601-204.799c0 0 153.6 102.401 153.6 153.6s-153.6 204.799-204.799 153.6z" />
<glyph unicode="&#xe962;" glyph-name="account3" d="M1018.186 66.379c-49.509 138.131-157.159 250.362-291.942 306.213 72.811 61.364 118.75 152.612 118.75 254.59 0 183.587-149.231 332.818-332.818 332.818s-332.994-149.231-332.994-332.818c0-0.043 0-0.095 0-0.146 0-101.898 45.866-193.083 118.078-254.037-134.464-56.435-242.114-168.49-291.447-306.621-3.664-9.897-5.784-21.328-5.784-33.255 0-21.125 6.651-40.696 17.972-56.734 17.14-24.423 45.523-40.392 77.636-40.392 0.259 0 0.518 0.001 0.776 0.003 14.118 0 25.596 11.477 25.596 25.635s-11.477 25.635-25.635 25.635c-0.090-0.001-0.196-0.001-0.302-0.001-14.999 0-28.254 7.467-36.25 18.887-5.429 7.611-8.624 16.927-8.624 26.988 0 5.797 1.060 11.346 2.998 16.464 48.345 134.816 158.462 242.466 294.831 287.746 46.891-26.883 103.081-42.736 162.973-42.736s116.082 15.854 164.601 43.594c134.742-46.313 244.859-153.788 293.31-289.099 1.831-4.798 2.891-10.347 2.891-16.144 0-10.062-3.195-19.377-8.625-26.988-7.995-11.42-21.25-18.887-36.249-18.887-0.106 0-0.212 0-0.318 0.001-14.142 0-25.619-11.477-25.619-25.635s11.477-25.635 25.635-25.635c0.219-0.002 0.477-0.003 0.736-0.003 32.113 0 60.496 15.969 77.641 40.399 11.316 16.032 17.967 35.603 17.967 56.727 0 11.927-2.12 23.358-6.004 33.939l0.219-0.683zM512 345.635c-155.221 0-281.547 126.326-281.547 281.547s126.326 281.547 281.547 281.547 281.547-126.326 281.547-281.547-126.326-281.547-281.547-281.547v0z" />
<glyph unicode="&#xe963;" glyph-name="weixin" d="M534.779 446.692c-8.209-8.356-16.042-16.28-23.277-23.417-7.241 7.161-15.063 15.083-23.247 23.417 8.184 8.334 16.006 16.256 23.247 23.417 7.234-7.137 15.068-15.061 23.277-23.417zM628.471 537.772c5.062 4.293 9.95 8.24 14.606 11.748 13.027 9.817 40.612 23.074 51.835 28.303 12.737 21.871 36.438 36.572 63.573 36.572 40.602 0 73.516-32.914 73.516-73.516s-32.914-73.516-73.516-73.516c-1.392 0-2.774 0.039-4.147 0.115-11.017-5.565-25.663-13.297-37.647-20.788 11.984-7.49 26.63-15.222 37.647-20.788 1.373 0.076 2.755 0.115 4.147 0.115 40.602 0 73.516-32.914 73.516-73.516s-32.914-73.516-73.516-73.516c-27.134 0-50.835 14.701-63.573 36.572-11.222 5.23-38.808 18.487-51.835 28.303-4.656 3.509-9.544 7.455-14.606 11.748-16.334-19.175-32.399-37.112-46.798-48.984-23.769-19.596-33.975-19.683-33.975-19.683-9.313-3.999-19.585-5.76-30.002-5.56-14.204-2.168-28.691-0.878-41.393 4.576 0 0-10.206 0.087-33.975 19.683-14.686 12.107-31.103 30.524-47.772 50.128-4.716-3.975-9.275-7.642-13.632-10.925-13.027-9.817-40.612-23.074-51.835-28.303-12.737-21.871-36.438-36.572-63.573-36.572-40.602 0-73.516 32.914-73.516 73.516s32.914 73.516 73.516 73.516c1.392 0 2.774-0.039 4.147-0.115 10.535 5.322 24.39 12.625 36.061 19.804-11.671 7.179-25.525 14.482-36.061 19.804-1.373-0.076-2.755-0.115-4.147-0.115-40.602 0-73.516 32.914-73.516 73.516s32.914 73.516 73.516 73.516c27.134 0 50.835-14.701 63.573-36.572 11.222-5.23 38.808-18.487 51.835-28.303 4.357-3.283 8.917-6.95 13.632-10.925 16.669 19.604 33.086 38.020 47.772 50.128 23.769 19.596 33.975 19.683 33.975 19.683 12.702 5.455 27.189 6.745 41.393 4.576 10.417 0.2 20.689-1.561 30.002-5.56 0 0 10.206-0.087 33.975-19.683 14.4-11.871 30.464-29.809 46.798-48.984zM218.849 199.958c16.105-19.015-19.471-120.386 0-135.958 20.909-16.721 97.1 52.642 121.249 40.532 18.336-9.195 37.511-16.965 57.378-23.164 36.17-11.286 74.636-17.368 114.523-17.368 212.077 0 384 171.923 384 384s-171.923 384-384 384c-212.077 0-384-171.923-384-384 0-94.556 34.176-181.129 90.849-248.042z" />
<glyph unicode="&#xe964;" glyph-name="male_kawa" d="M690.807 739.657c27.637-40.269 43.777-88.824 43.777-141.093 0-139.29-114.615-252.207-256-252.207s-256 112.917-256 252.207c0 59.11 20.641 113.471 55.209 156.468l62.728-15.059c0 0 162.744-122.417 350.287-0.316zM217.991 26.931c6.841 141.333 124.096 253.829 267.113 253.829 143.301 0 260.277-112.742 267.113-253.829h-534.226zM478.584 314.831c159.058 0 288 127.032 288 283.733s-128.942 283.733-288 283.733c-159.058 0-288-127.032-288-283.733s128.942-283.733 288-283.733zM373.502 516.431c15.547 0 28.15 12.417 28.15 27.733s-12.603 27.733-28.15 27.733c-15.547 0-28.15-12.417-28.15-27.733s12.603-27.733 28.15-27.733zM570.555 516.431c15.547 0 28.15 12.417 28.15 27.733s-12.603 27.733-28.15 27.733c-15.547 0-28.15-12.417-28.15-27.733s12.603-27.733 28.15-27.733z" />
<glyph unicode="&#xe965;" glyph-name="female_kawa" d="M228.012 554.021v0c8.090-6.453 20.829-7.3 39.601-0.145 198.977 96.985 289.723 235.219 289.723 235.219s224.437-303.208 251.325-206.784c-5.038-123.28-88.864-226.573-203.218-262.333 83.27-25.417 150.542-87.606 182.964-167.522v307.084c21.928 41.396 34.326 88.47 34.326 138.397 0 165.44-136.132 299.556-304.060 299.556s-304.060-134.116-304.060-299.556c0-27.476 3.755-54.088 10.787-79.366v-380.246h23.72c29.479 85.352 97.97 152.543 183.995 180.298-107.699 31.808-189.234 123.246-205.103 235.399zM325.821 811.288c51.218 43.804 118.082 70.316 191.231 70.316 94.561 0 178.618-44.306 231.95-112.995-192.195 166.736-350.691 94.727-423.181 42.679v0zM422.452 498.857v0c-15.547 0-28.15 12.417-28.15 27.733s12.603 27.733 28.15 27.733c15.547 0 28.15-12.417 28.15-27.733s-12.603-27.733-28.15-27.733zM256.026 48.099h534.226c-6.836 141.087-123.812 253.829-267.113 253.829-143.017 0-260.272-112.496-267.113-253.829zM619.505 498.857c-15.547 0-28.15 12.417-28.15 27.733s12.603 27.733 28.15 27.733c15.547 0 28.15-12.417 28.15-27.733s-12.603-27.733-28.15-27.733z" />
<glyph unicode="&#xe966;" glyph-name="more" d="M860.444 577.939h99.556v-271.515h-99.556l-348.444-190.061-348.444 190.061h-99.556v271.515h99.556l348.444 190.061 348.444-190.061zM512 744.727l-323.556-176.485h-111.191v-252.121h111.191l323.556-176.485 323.556 176.485 109.23 4.621v247.5h-109.23l-323.556 176.485zM513.792 282.395c7.168 0 13.141 5.973 13.141 13.141 0 3.584-1.792 7.168-4.181 10.155-2.987 2.389-11.947 13.739-11.947 29.269 0 25.088 18.517 42.411 44.203 60.928 38.827 28.075 75.861 60.331 75.861 120.064 0 23.296-7.765 43.605-23.296 59.136-17.323 17.323-43.008 26.88-74.667 26.88-10.155 0-20.309-1.195-28.672-4.181-8.96-2.389-16.725-5.376-23.893-9.557-7.168 2.389-14.336 2.389-19.115 2.389-40.021 0-68.096-23.893-68.096-39.424 0-7.765 5.973-12.544 13.739-12.544 5.376 0 8.363 3.584 11.947 9.557 4.181 7.168 19.712 19.712 40.021 18.517-13.141-12.544-18.517-30.464-18.517-45.397 0-36.437 25.685-53.76 48.981-53.76 23.893 0 47.787 20.309 47.787 53.76 0 23.296-9.557 43.008-28.672 54.357 7.168 1.792 15.531 2.389 21.504 2.389 47.189 0 74.069-27.477 74.069-61.525 0-48.384-28.672-74.667-59.136-96.768-34.645-25.088-60.331-48.384-60.331-84.821 0-25.685 16.128-52.565 29.269-52.565z" />
<glyph unicode="&#xe967;" glyph-name="application_fill" d="M128 728.176v-192.025c0-35.59 28.648-63.988 63.988-63.988h192.025c35.59 0 63.988 28.648 63.988 63.988v192.025c0 35.59-28.648 63.988-63.988 63.988h-192.025c-35.59 0-63.988-28.648-63.988-63.988zM128 344.176v-192.025c0-35.59 28.648-63.988 63.988-63.988h192.025c35.59 0 63.988 28.648 63.988 63.988v192.025c0 35.59-28.648 63.988-63.988 63.988h-192.025c-35.59 0-63.988-28.648-63.988-63.988zM512 344.176v-192.025c0-35.59 28.648-63.988 63.988-63.988h192.025c35.59 0 63.988 28.648 63.988 63.988v192.025c0 35.59-28.648 63.988-63.988 63.988h-192.025c-35.59 0-63.988-28.648-63.988-63.988zM626.754 813.192l-135.782-135.782c-25.166-25.166-24.989-65.504 0-90.492l135.782-135.782c25.166-25.166 65.503-24.989 90.492 0l135.782 135.782c25.166 25.166 24.989 65.504 0 90.492l-135.782 135.782c-25.166 25.166-65.504 24.989-90.492 0zM649.803 790.987c12.259 12.259 31.929 12.464 44.393 0l136.626-136.626c12.259-12.259 12.464-31.929 0-44.393l-136.626-136.626c-12.259-12.259-31.929-12.464-44.393 0l-136.626 136.626c-12.259 12.259-12.464 31.929 0 44.393l136.626 136.626z" />
<glyph unicode="&#xe968;" glyph-name="clover" d="M100.457 667.693c0-107.898 87.647-195.765 195.765-195.765h163.724c17.17 0 32.040 14.345 32.040 32.040v163.724c0 107.898-87.647 195.765-195.765 195.765-107.898 0-195.765-87.647-195.765-195.765zM932.457 667.693c0-107.898-87.647-195.765-195.765-195.765h-163.724c-17.17 0-32.040 14.345-32.040 32.040v163.724c0 107.898 87.647 195.765 195.765 195.765 107.898 0 195.765-87.647 195.765-195.765zM900.532 667.693c0 90.486-72.723 163.84-163.84 163.84-90.486 0-163.84-72.723-163.84-163.84v-131.223c0-18.014 14.080-32.617 32.617-32.617h131.223c90.486 0 163.84 72.723 163.84 163.84zM100.457 227.223c0-108.118 87.867-195.765 195.765-195.765 108.118 0 195.765 87.867 195.765 195.765v163.724c0 17.695-14.87 32.040-32.040 32.040h-163.724c-108.118 0-195.765-87.867-195.765-195.765zM932.457 227.223c0-108.118-87.867-195.765-195.765-195.765-108.118 0-195.765 87.867-195.765 195.765v163.724c0 17.695 14.87 32.040 32.040 32.040h163.724c108.118 0 195.765-87.867 195.765-195.765z" />
<glyph unicode="&#xe969;" glyph-name="motion" d="M680.154 845.177c-8.525 4.215-18.121 6.597-28.269 6.597h-420.568c-35.281 0-64.002-28.451-64.002-63.547v-633.591c0-9.878 2.328-19.288 6.475-27.694-21.169 10.467-35.732 32.244-35.732 56.951v633.591c0 35.096 28.721 63.547 64.002 63.547h420.568c25.272 0 47.123-14.769 57.526-35.854zM262.401 729.712v-633.591c0-34.656 28.402-63.547 63.437-63.547h487.525c34.628 0 63.437 28.486 63.437 63.626v472.669l-226.163 224.39h-324.128c-34.929 0-64.11-28.451-64.11-63.547zM291.658 693.522c0 35.078 28.745 63.514 64.427 63.514h286.835l204.623-203.020v-421.786c0-35.034-28.331-63.434-63.767-63.434h-428.351c-35.218 0-63.767 28.697-63.767 63.514v561.211zM720.457 135.314c-48.475 0-87.771 39.297-87.771 87.771s39.297 87.771 87.771 87.771c48.475 0 87.771-39.297 87.771-87.771s-39.297-87.771-87.771-87.771zM720.457 149.943c40.396 0 73.143 32.747 73.143 73.143s-32.747 73.143-73.143 73.143c-40.396 0-73.143-32.747-73.143-73.143s32.747-73.143 73.143-73.143zM720.457 193.829l-34.394-18.082 6.569 38.298-27.825 27.123 38.453 5.588 17.197 34.845 17.197-34.845 38.453-5.588-27.825-27.123 6.569-38.298-34.394 18.082zM376.64 596.096h182.912c20.183 0 36.544-16.361 36.544-36.544v-0.064c0-20.183-16.361-36.544-36.544-36.544h-182.912c-20.183 0-36.544 16.361-36.544 36.544v0.064c0 20.183 16.361 36.544 36.544 36.544zM376.64 435.2h278.016c20.183 0 36.544-16.361 36.544-36.544v-0.064c0-20.183-16.361-36.544-36.544-36.544h-278.016c-20.183 0-36.544 16.361-36.544 36.544v0.064c0 20.183 16.361 36.544 36.544 36.544zM376.64 274.304h160.96c20.183 0 36.544-16.361 36.544-36.544v-0.064c0-20.183-16.361-36.544-36.544-36.544h-160.96c-20.183 0-36.544 16.361-36.544 36.544v0.064c0 20.183 16.361 36.544 36.544 36.544zM661.943 575.151v203.821h-29.257v-234.057h29.257v0.979h204.374v29.257h-204.374z" />
<glyph unicode="&#xe96a;" glyph-name="plain2" d="M512.853 450.217c-77.756-22.062-153.677-43.394-212.177-59.395-27.553-7.366-127.964-94.43-127.964-94.43l43.818-3.835 90.48-8.074 617.541 142.865c37.087 9.138 59.909 46.957 49.927 84.090-10.049 37.321-48.182 57.918-85.332 46.712 0 0-72.573-21.029-170.902-49.267l-248.438 147.329-79.973-77.229 123.020-128.765zM120.934 416.124l100.623-53.633-62.427-60.285-74.862 78.51 36.666 35.408z" />
<glyph unicode="&#xe96b;" glyph-name="automobile" d="M803.562 306.457h10.719c70.437 0 134.191 57.262 141.391 127.897l0.309 3.033c2.713 26.62-2.942 51.117-14.841 71.171-0.273 19.37-51.761 107.163-99.469 156.53-34.197 35.387-69.258 38.911-69.258 38.911s-177.746 0-320.761 0c-143.015 0-214.463-148.632-214.463-148.632l-53.375-16.254c-14.23-1.938-27.89-6.19-40.566-12.354l-6.471-1.971 2.8 0.118c-42.801-22.402-73.556-66.831-75.576-117.065l1.080 26.854c-2.874-71.478 52.309-128.239 123.197-128.239h32.237c13.464 40.195 50.252 69.042 93.523 69.042s80.059-28.846 93.523-69.042h208.956c13.464 40.195 50.252 69.042 93.523 69.042s80.059-28.846 93.523-69.042zM575.124 541.808l-255.124-0.236v37.85c0 0 6.55 24.075 52.572 56.531s107.684 32.456 107.684 32.456h95.744l-0.876-126.601zM591.104 546.168l-0.69 117.738h75.409c0 0 62.575 0 104.775-28.349s-42.2-89.39-42.2-89.39h-137.294zM710.039 213.782c32.501 0 58.847 26.347 58.847 58.847s-26.347 58.847-58.847 58.847c-32.501 0-58.847-26.347-58.847-58.847s26.347-58.847 58.847-58.847zM314.037 213.782c32.501 0 58.847 26.347 58.847 58.847s-26.347 58.847-58.847 58.847c-32.501 0-58.847-26.347-58.847-58.847s26.347-58.847 58.847-58.847z" />
<glyph unicode="&#xe96c;" glyph-name="calendar" d="M368.012 543.992h95.992v-95.992h-95.992zM512 543.992h95.992v-95.992h-95.992zM655.988 543.992h95.992v-95.992h-95.992zM224.024 256.016h95.992v-95.992h-95.992zM368.012 256.016h95.992v-95.992h-95.992zM512 256.016h95.992v-95.992h-95.992zM368.012 400.004h95.992v-95.992h-95.992zM512 400.004h95.992v-95.992h-95.992zM655.988 400.004h95.992v-95.992h-95.992zM224.024 400.004h95.992v-95.992h-95.992zM751.98 831.965v-47.996h-95.992v47.996h-335.971v-47.996h-95.992v47.996h-95.992v-767.932h719.936v767.932h-95.992zM799.976 112.029h-623.944v527.952h623.944v-527.952z" />
<glyph unicode="&#xe96d;" glyph-name="bubbles2" horiz-adv-x="1152" d="M498.009 863.952v0c215.365 0 389.955-141.289 389.955-315.578s-174.59-315.578-389.955-315.578c-20.682 0-40.984 1.317-60.797 3.826-83.765-83.429-180.494-98.389-277.167-100.588v20.418c52.198 25.471 94.239 71.87 94.239 124.895 0 7.399-0.578 14.662-1.649 21.768-88.194 57.855-144.583 146.223-144.583 245.259 0 174.289 174.59 315.578 389.955 315.578zM917.211 156.601c0-45.448 29.501-85.221 74.741-107.052v-17.501c-83.78 1.883-160.682 14.706-233.277 86.218-17.174-2.152-34.766-3.281-52.69-3.281-77.56 0-149.001 20.925-206.037 56.089 117.534 0.41 228.499 38.064 312.642 106.159 42.413 34.326 75.874 74.6 99.449 119.706 24.994 47.823 37.669 98.773 37.669 151.438 0 8.489-0.366 16.927-1.021 25.321 58.956-48.69 95.262-115.054 95.262-188.215 0-84.886-48.872-160.63-125.305-210.221-0.929-6.089-1.43-12.316-1.43-18.658z" />
<glyph unicode="&#xe96e;" glyph-name="chart_classification" d="M766.019 480h193.981v-64h-193.981c-15.747-126.282-123.472-224-254.019-224s-238.272 97.718-254.019 224h-193.981v64h193.981c15.747 126.282 123.472 224 254.019 224s238.272-97.718 254.019-224zM512 256c106.039 0 192 85.961 192 192s-85.961 192-192 192c-106.039 0-192-85.961-192-192s85.961-192 192-192z" />
<glyph unicode="&#xe96f;" glyph-name="triangle_dubble_right" d="M424.359 505.385l-154.075 363.292c-13.824 32.596-25.031 30.21-25.031-4.888v-834.85c0-35.296 10.975-38.030 25.031-4.888l154.075 363.292c13.824 32.596 14.056 84.9 0 118.042zM724.691 505.385l-154.075 363.292c-13.824 32.596-25.031 30.21-25.031-4.888v-834.85c0-35.296 10.975-38.030 25.031-4.888l154.075 363.292c13.824 32.596 14.056 84.9 0 118.042z" />
<glyph unicode="&#xe970;" glyph-name="bubbles4" horiz-adv-x="1152" d="M498.009 759.964c-41.162 0-80.901-6.459-118.113-19.196-34.872-11.937-65.898-28.788-92.211-50.081-48.779-39.476-75.646-90.016-75.646-142.312 0-29.239 8.179-57.64 24.307-84.407 16.805-27.899 42.163-53.452 73.328-73.894 24.731-16.221 41.381-42.205 45.79-71.45 0.734-4.866 1.324-9.753 1.772-14.649 2.212 2.046 4.407 4.154 6.593 6.333 19.611 19.531 46.053 30.313 73.378 30.313 4.346 0 8.708-0.273 13.076-0.826 15.727-1.993 31.785-3.003 47.727-3.003 41.162 0 80.899 6.457 118.111 19.196 34.874 11.935 65.9 28.786 92.212 50.079 48.781 39.476 75.646 90.016 75.646 142.312s-26.862 102.837-75.646 142.312c-26.313 21.295-57.339 38.144-92.212 50.081-37.212 12.738-76.949 19.196-118.111 19.196zM498.009 863.952v0c215.365 0 389.955-141.289 389.955-315.578s-174.59-315.578-389.955-315.578c-20.682 0-40.984 1.317-60.797 3.826-83.765-83.429-180.494-98.389-277.167-100.588v20.418c52.198 25.471 94.239 71.87 94.239 124.895 0 7.399-0.578 14.662-1.649 21.768-88.194 57.855-144.583 146.223-144.583 245.259 0 174.289 174.59 315.578 389.955 315.578zM917.211 156.601c0-45.448 29.501-85.221 74.741-107.052v-17.501c-83.78 1.883-160.682 14.706-233.277 86.218-17.174-2.152-34.766-3.281-52.69-3.281-77.56 0-149.001 20.925-206.037 56.089 117.534 0.41 228.499 38.064 312.642 106.159 42.413 34.326 75.874 74.6 99.449 119.706 24.994 47.823 37.669 98.773 37.669 151.438 0 8.489-0.366 16.927-1.021 25.321 58.956-48.69 95.262-115.054 95.262-188.215 0-84.886-48.872-160.63-125.305-210.221-0.929-6.089-1.43-12.316-1.43-18.658z" />
<glyph unicode="&#xe971;" glyph-name="user" d="M561.231 298.298v40.6c54.229 30.56 98.462 106.747 98.462 182.947 0 122.353 0 221.538-147.693 221.538s-147.693-99.185-147.693-221.538c0-76.2 44.233-152.387 98.462-182.947v-40.6c-167.002-13.653-295.385-95.707-295.385-194.915h689.231c0 99.205-128.384 181.262-295.385 194.915z" />
<glyph unicode="&#xe972;" glyph-name="triangle_dubble_left" d="M599.641 505.385l154.075 363.292c13.824 32.596 25.031 30.21 25.031-4.888v-834.85c0-35.296-10.975-38.030-25.031-4.888l-154.075 363.292c-13.824 32.596-14.056 84.9 0 118.042zM299.309 505.385l154.075 363.292c13.824 32.596 25.031 30.21 25.031-4.888v-834.85c0-35.296-10.975-38.030-25.031-4.888l-154.075 363.292c-13.824 32.596-14.056 84.9 0 118.042z" />
<glyph unicode="&#xe973;" glyph-name="checked" d="M615.856-11.292c-16.262-2.993-33.664 1.78-46.033 14.148l-220.134 220.134c-20.184 20.184-20.275 52.812 0.109 73.196 20.244 20.244 53.258 20.047 73.196 0.109l43.899-43.899v244.196c0 28.921 23.007 52.367 51.836 52.367 28.628 0 51.836-23.126 51.836-52.367v-53.843c8.66 6.597 19.462 10.506 31.234 10.506 21.693 0 40.272-13.279 48.003-32.433 8.476 6.121 18.881 9.723 30.182 9.723 21.456 0 39.867-12.992 47.746-31.811 9.228 8.668 21.617 13.969 35.323 13.969 28.628 0 51.836-23.126 51.836-52.367v-107.57l-155.474-206.273c-0.568 0.245-1.128 0.502-1.686 0.766 0.127-0.859 0.234-1.72 0.317-2.581l-42.186-55.971zM549.964 171.172c-0.35-0.267-0.703-0.528-1.059-0.787l1.059-1.059v1.846zM650.577 483.163c0.163 2.745 0.245 5.513 0.245 8.3 0 76.142-61.726 137.868-137.868 137.868s-137.868-61.726-137.868-137.868c0-51.691 28.448-96.739 70.542-120.339v15.457c-35.242 22.090-58.674 61.279-58.674 105.94 0 69.004 55.938 124.942 124.942 124.942s124.942-55.938 124.942-124.942c0-1.396-0.022-2.787-0.068-4.173 2.215-2.778 4.188-5.762 5.884-8.923 2.529 1.434 5.174 2.684 7.92 3.736zM774.459 464.676c1.17 10.111 1.773 20.395 1.773 30.822 0 146.427-118.703 265.13-265.13 265.13s-265.13-118.703-265.13-265.13c0-62.148 21.383-119.302 57.194-164.507 6.036 5.331 12.792 9.407 19.933 12.224-33.723 41.582-53.929 94.571-53.929 152.281 0 133.616 108.316 241.932 241.932 241.932s241.932-108.316 241.932-241.932c0-11.863-0.854-23.527-2.503-34.935 1.378-1.921 2.659-3.918 3.836-5.985 6.016 4.414 12.786 7.855 20.094 10.098zM808.556 214.573c66.46 71.080 107.143 166.566 107.143 271.554 0 219.641-178.055 397.696-397.696 397.696s-397.696-178.055-397.696-397.696c0-192.645 136.976-353.297 318.843-389.879l36.934-36.934c-218.273 20.976-388.92 204.061-388.92 426.813 0 236.83 192.892 428.818 430.836 428.818s430.836-191.988 430.836-428.818c0-125.395-54.076-238.22-140.283-316.631v45.076z" />
<glyph unicode="&#xe974;" glyph-name="rabort" d="M711.073 809.219c11.886 3.509 20.449 13.387 20.449 25.023 0 14.574-13.432 26.388-30.003 26.388-15.367 0-28.035-10.161-29.794-23.261-48.099 28.855-106.234 45.726-168.849 45.726-165.698 0-300.022-118.144-300.022-263.882 0-88.359 49.375-166.574 125.181-214.467l-112.664-67.695 0.61-30.425-0.737-0.574 1.050-15.004 0.909-45.398c0.158-7.855 1.45-14.656 3.686-20.318l2.417-34.571c2.528-36.151 33.567-63.112 69.356-60.609l6.372 0.446c31.594 2.209 56.13 26.301 59.94 56.253 14.723-65.937 63.909-109.359 115.117-99.555 0 0-11.207 0 0 0 40.285-6.887 106.785 40.817 116.824 114.699l7.71 56.743c5.236 38.533-6.076 75.329-28.419 103.265 133.278 26.879 232.693 131.834 232.693 257.212 0 0.541-0.002 1.080-0.005 1.62h22.789c5.785-5.083 14.372-7.564 23.322-5.987 14.504 2.558 24.468 14.812 22.254 27.37s-15.768 20.665-30.273 18.108c-5.421-0.956-10.207-3.265-13.96-6.439v1.024h-26.848c-9.268 60.28-41.679 114.099-89.105 154.31zM461.018 756.302c29.848 19.334 66.726 30.758 106.637 30.758 99.419 0 180.013-70.886 180.013-158.329s-80.595-158.329-180.013-158.329c-0.116 0-0.233 0-0.349 0 36.378 28.365 60.354 76.87 60.354 131.941 0 87.443-60.446 158.329-135.010 158.329-10.893 0-21.486-1.513-31.632-4.37v0zM498.162 654.454c0 5.762 4.472 10.432 10.649 10.432h46.855c5.881 0 10.649-4.839 10.649-10.432 0-5.762-4.472-10.432-10.649-10.432h-46.855c-5.881 0-10.649 4.839-10.649 10.432zM498.669 622.846c0 5.762 4.472 10.432 10.649 10.432h46.855c5.881 0 10.649-4.839 10.649-10.432 0-5.762-4.472-10.432-10.649-10.432h-46.855c-5.881 0-10.649 4.839-10.649 10.432zM499.076 593.592c0 5.762 4.472 10.432 10.649 10.432h46.855c5.881 0 10.649-4.839 10.649-10.432 0-5.762-4.472-10.432-10.649-10.432h-46.855c-5.881 0-10.649 4.839-10.649 10.432zM287.677 175.378c-9.205 0-16.668 7.107-16.668 15.874s7.462 15.874 16.668 15.874c9.205 0 16.668-7.107 16.668-15.874s-7.462-15.874-16.668-15.874zM487.32-14.76c-36.439 0-65.98 30.974-65.98 54.637s29.54 14.281 65.98 14.281c36.439 0 65.98 9.381 65.98-14.281s-29.54-54.637-65.98-54.637z" />
<glyph unicode="&#xe975;" glyph-name="pacman" d="M964.73 781.196c-93.902 109.45-233.21 178.804-388.73 178.804-282.77 0-512-229.23-512-512s229.23-512 512-512c155.52 0 294.828 69.356 388.728 178.804l-324.728 333.196 324.73 333.196zM704 839.398c39.432 0 71.398-31.964 71.398-71.398 0-39.432-31.966-71.398-71.398-71.398s-71.398 31.966-71.398 71.398c0 39.432 31.966 71.398 71.398 71.398z" />
<glyph unicode="&#xe976;" glyph-name="user_tie" d="M358.4 704.001c0 84.832 68.768 153.6 153.6 153.6s153.6-68.768 153.6-153.6c0-84.832-68.768-153.6-153.6-153.6s-153.6 68.768-153.6 153.6zM716.862 499.199h-28.338l-159.282-323.395 59.561 297.796-76.8 76.8-76.8-76.8 59.561-297.796-159.282 323.395h-28.338c-102.34 0-102.34-68.79-102.34-153.6v-256.001h614.4v256.001c0 84.81 0 153.6-102.338 153.6z" />
<glyph unicode="&#xe977;" glyph-name="mic" d="M480 256c88.366 0 160 71.634 160 160v384c0 88.366-71.634 160-160 160s-160-71.634-160-160v-384c0-88.366 71.636-160 160-160zM704 512v-96c0-123.71-100.29-224-224-224-123.712 0-224 100.29-224 224v96h-64v-96c0-148.238 112.004-270.3 256-286.22v-129.78h-128v-64h320v64h-128v129.78c143.994 15.92 256 137.982 256 286.22v96h-64z" />
<glyph unicode="&#xe978;" glyph-name="chose" d="M641.433 10.969h0.065v442.733h0.61l231.25 220.27c108.667 103.507 72.154 195.73-77.526 195.73h-551.365c-149.662 0-186.193-92.223-77.526-195.73l231.38-220.27v-277.086h38.827v277.086h1.15l-252.387 240.404c-90.567 86.267-66.168 147.863 58.556 147.863h551.365c124.739 0 149.125-61.594 58.556-147.863l-251.336-239.403h-0.38v-0.362l-0.671-0.639h0.671v-397.354l-21.199 21.199c-6.428 6.428-16.842 6.306-23.341-0.192-6.308-6.308-6.584-16.948-0.192-23.341l55.293-55.293c6.428-6.428 16.842-6.306 23.341 0.192 3.258 3.258 4.906 7.67 4.859 12.056z" />
</font>
</defs>
</svg>
